<?xml version="1.0" encoding="utf-8" standalone="no"?>
<!DOCTYPE svg PUBLIC "-//W3C//DTD SVG 1.1//EN"
  "http://www.w3.org/Graphics/SVG/1.1/DTD/svg11.dtd">
<!-- Created with matplotlib (https://matplotlib.org/) -->
<svg height="100.8pt" version="1.1" viewBox="0 0 1296 100.8" width="1296pt" xmlns="http://www.w3.org/2000/svg" xmlns:xlink="http://www.w3.org/1999/xlink">
 <metadata>
  <rdf:RDF xmlns:cc="http://creativecommons.org/ns#" xmlns:dc="http://purl.org/dc/elements/1.1/" xmlns:rdf="http://www.w3.org/1999/02/22-rdf-syntax-ns#">
   <cc:Work>
    <dc:type rdf:resource="http://purl.org/dc/dcmitype/StillImage"/>
    <dc:date>2020-10-19T15:08:11.340537</dc:date>
    <dc:format>image/svg+xml</dc:format>
    <dc:creator>
     <cc:Agent>
      <dc:title>Matplotlib v3.3.1, https://matplotlib.org/</dc:title>
     </cc:Agent>
    </dc:creator>
   </cc:Work>
  </rdf:RDF>
 </metadata>
 <defs>
  <style type="text/css">*{stroke-linecap:butt;stroke-linejoin:round;}</style>
 </defs>
 <g id="figure_1">
  <g id="patch_1">
   <path d="M 0 100.8 
L 1296 100.8 
L 1296 0 
L 0 0 
z
" style="fill:#ffffff;"/>
  </g>
  <g id="axes_1">
   <g id="table_1">
    <g id="patch_2">
     <path d="M 10.8 50.4 
L 138.24 50.4 
L 138.24 10.8 
L 10.8 10.8 
z
" style="fill:#40466e;stroke:#ffffff;stroke-linejoin:miter;"/>
    </g>
    <g id="text_1">
     <!-- patch size -->
     <g style="fill:#ffffff;" transform="translate(28.7625 35.015)scale(0.16 -0.16)">
      <defs>
       <path d="M 25.875 7.90625 
L 25.875 -20.796875 
L 8.40625 -20.796875 
L 8.40625 54.6875 
L 25.875 54.6875 
L 25.875 46.6875 
Q 29.5 51.46875 33.890625 53.734375 
Q 38.28125 56 44 56 
Q 54.109375 56 60.59375 47.96875 
Q 67.09375 39.9375 67.09375 27.296875 
Q 67.09375 14.65625 60.59375 6.609375 
Q 54.109375 -1.421875 44 -1.421875 
Q 38.28125 -1.421875 33.890625 0.84375 
Q 29.5 3.125 25.875 7.90625 
z
M 37.5 43.3125 
Q 31.890625 43.3125 28.875 39.1875 
Q 25.875 35.0625 25.875 27.296875 
Q 25.875 19.53125 28.875 15.40625 
Q 31.890625 11.28125 37.5 11.28125 
Q 43.109375 11.28125 46.0625 15.375 
Q 49.03125 19.484375 49.03125 27.296875 
Q 49.03125 35.109375 46.0625 39.203125 
Q 43.109375 43.3125 37.5 43.3125 
z
" id="DejaVuSans-Bold-112"/>
       <path d="M 32.90625 24.609375 
Q 27.4375 24.609375 24.671875 22.75 
Q 21.921875 20.90625 21.921875 17.28125 
Q 21.921875 13.96875 24.140625 12.078125 
Q 26.375 10.203125 30.328125 10.203125 
Q 35.25 10.203125 38.625 13.734375 
Q 42 17.28125 42 22.609375 
L 42 24.609375 
z
M 59.625 31.203125 
L 59.625 0 
L 42 0 
L 42 8.109375 
Q 38.484375 3.125 34.078125 0.84375 
Q 29.6875 -1.421875 23.390625 -1.421875 
Q 14.890625 -1.421875 9.59375 3.53125 
Q 4.296875 8.5 4.296875 16.40625 
Q 4.296875 26.03125 10.90625 30.515625 
Q 17.53125 35.015625 31.6875 35.015625 
L 42 35.015625 
L 42 36.375 
Q 42 40.53125 38.71875 42.453125 
Q 35.453125 44.390625 28.515625 44.390625 
Q 22.90625 44.390625 18.0625 43.265625 
Q 13.234375 42.140625 9.078125 39.890625 
L 9.078125 53.21875 
Q 14.703125 54.59375 20.359375 55.296875 
Q 26.03125 56 31.6875 56 
Q 46.484375 56 53.046875 50.171875 
Q 59.625 44.34375 59.625 31.203125 
z
" id="DejaVuSans-Bold-97"/>
       <path d="M 27.484375 70.21875 
L 27.484375 54.6875 
L 45.515625 54.6875 
L 45.515625 42.1875 
L 27.484375 42.1875 
L 27.484375 19 
Q 27.484375 15.1875 29 13.84375 
Q 30.515625 12.5 35.015625 12.5 
L 44 12.5 
L 44 0 
L 29 0 
Q 18.65625 0 14.328125 4.3125 
Q 10.015625 8.640625 10.015625 19 
L 10.015625 42.1875 
L 1.3125 42.1875 
L 1.3125 54.6875 
L 10.015625 54.6875 
L 10.015625 70.21875 
z
" id="DejaVuSans-Bold-116"/>
       <path d="M 52.59375 52.984375 
L 52.59375 38.71875 
Q 49.03125 41.15625 45.4375 42.328125 
Q 41.84375 43.5 37.984375 43.5 
Q 30.671875 43.5 26.59375 39.234375 
Q 22.515625 34.96875 22.515625 27.296875 
Q 22.515625 19.625 26.59375 15.34375 
Q 30.671875 11.078125 37.984375 11.078125 
Q 42.09375 11.078125 45.78125 12.296875 
Q 49.46875 13.53125 52.59375 15.921875 
L 52.59375 1.609375 
Q 48.484375 0.09375 44.265625 -0.65625 
Q 40.046875 -1.421875 35.796875 -1.421875 
Q 21 -1.421875 12.640625 6.171875 
Q 4.296875 13.765625 4.296875 27.296875 
Q 4.296875 40.828125 12.640625 48.40625 
Q 21 56 35.796875 56 
Q 40.09375 56 44.265625 55.25 
Q 48.4375 54.5 52.59375 52.984375 
z
" id="DejaVuSans-Bold-99"/>
       <path d="M 63.375 33.296875 
L 63.375 0 
L 45.796875 0 
L 45.796875 5.421875 
L 45.796875 25.390625 
Q 45.796875 32.5625 45.484375 35.25 
Q 45.171875 37.9375 44.390625 39.203125 
Q 43.359375 40.921875 41.59375 41.875 
Q 39.84375 42.828125 37.59375 42.828125 
Q 32.125 42.828125 29 38.59375 
Q 25.875 34.375 25.875 26.90625 
L 25.875 0 
L 8.40625 0 
L 8.40625 75.984375 
L 25.875 75.984375 
L 25.875 46.6875 
Q 29.828125 51.46875 34.265625 53.734375 
Q 38.71875 56 44.09375 56 
Q 53.5625 56 58.46875 50.1875 
Q 63.375 44.390625 63.375 33.296875 
z
" id="DejaVuSans-Bold-104"/>
       <path id="DejaVuSans-Bold-32"/>
       <path d="M 51.125 52.984375 
L 51.125 39.703125 
Q 45.515625 42.046875 40.28125 43.21875 
Q 35.0625 44.390625 30.421875 44.390625 
Q 25.4375 44.390625 23.015625 43.140625 
Q 20.609375 41.890625 20.609375 39.3125 
Q 20.609375 37.203125 22.4375 36.078125 
Q 24.265625 34.96875 29 34.421875 
L 32.078125 33.984375 
Q 45.515625 32.28125 50.140625 28.375 
Q 54.78125 24.46875 54.78125 16.109375 
Q 54.78125 7.375 48.328125 2.96875 
Q 41.890625 -1.421875 29.109375 -1.421875 
Q 23.6875 -1.421875 17.890625 -0.5625 
Q 12.109375 0.296875 6 2 
L 6 15.28125 
Q 11.234375 12.75 16.71875 11.46875 
Q 22.21875 10.203125 27.875 10.203125 
Q 33.015625 10.203125 35.59375 11.609375 
Q 38.1875 13.03125 38.1875 15.828125 
Q 38.1875 18.171875 36.40625 19.3125 
Q 34.625 20.453125 29.296875 21.09375 
L 26.21875 21.484375 
Q 14.546875 22.953125 9.859375 26.90625 
Q 5.171875 30.859375 5.171875 38.921875 
Q 5.171875 47.609375 11.125 51.796875 
Q 17.09375 56 29.390625 56 
Q 34.234375 56 39.546875 55.265625 
Q 44.875 54.546875 51.125 52.984375 
z
" id="DejaVuSans-Bold-115"/>
       <path d="M 8.40625 54.6875 
L 25.875 54.6875 
L 25.875 0 
L 8.40625 0 
z
M 8.40625 75.984375 
L 25.875 75.984375 
L 25.875 61.71875 
L 8.40625 61.71875 
z
" id="DejaVuSans-Bold-105"/>
       <path d="M 5.71875 54.6875 
L 53.421875 54.6875 
L 53.421875 42.484375 
L 24.609375 12.5 
L 53.421875 12.5 
L 53.421875 0 
L 4.5 0 
L 4.5 12.203125 
L 33.296875 42.1875 
L 5.71875 42.1875 
z
" id="DejaVuSans-Bold-122"/>
       <path d="M 62.984375 27.484375 
L 62.984375 22.515625 
L 22.125 22.515625 
Q 22.75 16.359375 26.5625 13.28125 
Q 30.375 10.203125 37.203125 10.203125 
Q 42.71875 10.203125 48.5 11.84375 
Q 54.296875 13.484375 60.40625 16.796875 
L 60.40625 3.328125 
Q 54.203125 0.984375 48 -0.21875 
Q 41.796875 -1.421875 35.59375 -1.421875 
Q 20.75 -1.421875 12.515625 6.125 
Q 4.296875 13.671875 4.296875 27.296875 
Q 4.296875 40.671875 12.375 48.328125 
Q 20.453125 56 34.625 56 
Q 47.515625 56 55.25 48.234375 
Q 62.984375 40.484375 62.984375 27.484375 
z
M 45.015625 33.296875 
Q 45.015625 38.28125 42.109375 41.328125 
Q 39.203125 44.390625 34.515625 44.390625 
Q 29.4375 44.390625 26.265625 41.53125 
Q 23.09375 38.671875 22.3125 33.296875 
z
" id="DejaVuSans-Bold-101"/>
      </defs>
      <use xlink:href="#DejaVuSans-Bold-112"/>
      <use x="71.582031" xlink:href="#DejaVuSans-Bold-97"/>
      <use x="139.0625" xlink:href="#DejaVuSans-Bold-116"/>
      <use x="186.865234" xlink:href="#DejaVuSans-Bold-99"/>
      <use x="246.142578" xlink:href="#DejaVuSans-Bold-104"/>
      <use x="317.333984" xlink:href="#DejaVuSans-Bold-32"/>
      <use x="352.148438" xlink:href="#DejaVuSans-Bold-115"/>
      <use x="411.669922" xlink:href="#DejaVuSans-Bold-105"/>
      <use x="445.947266" xlink:href="#DejaVuSans-Bold-122"/>
      <use x="504.150391" xlink:href="#DejaVuSans-Bold-101"/>
     </g>
    </g>
    <g id="patch_3">
     <path d="M 138.24 50.4 
L 265.68 50.4 
L 265.68 10.8 
L 138.24 10.8 
z
" style="fill:#40466e;stroke:#ffffff;stroke-linejoin:miter;"/>
    </g>
    <g id="text_2">
     <!-- glimpse scale -->
     <g style="fill:#ffffff;" transform="translate(140.6425 34.9525)scale(0.16 -0.16)">
      <defs>
       <path d="M 45.609375 9.28125 
Q 42 4.5 37.640625 2.25 
Q 33.296875 0 27.59375 0 
Q 17.578125 0 11.03125 7.875 
Q 4.5 15.765625 4.5 27.984375 
Q 4.5 40.234375 11.03125 48.0625 
Q 17.578125 55.90625 27.59375 55.90625 
Q 33.296875 55.90625 37.640625 53.65625 
Q 42 51.421875 45.609375 46.578125 
L 45.609375 54.6875 
L 63.1875 54.6875 
L 63.1875 5.515625 
Q 63.1875 -7.671875 54.859375 -14.625 
Q 46.53125 -21.578125 30.71875 -21.578125 
Q 25.59375 -21.578125 20.796875 -20.796875 
Q 16.015625 -20.015625 11.1875 -18.40625 
L 11.1875 -4.78125 
Q 15.765625 -7.421875 20.15625 -8.71875 
Q 24.5625 -10.015625 29 -10.015625 
Q 37.59375 -10.015625 41.59375 -6.25 
Q 45.609375 -2.484375 45.609375 5.515625 
z
M 34.078125 43.3125 
Q 28.65625 43.3125 25.625 39.296875 
Q 22.609375 35.296875 22.609375 27.984375 
Q 22.609375 20.453125 25.53125 16.578125 
Q 28.46875 12.703125 34.078125 12.703125 
Q 39.546875 12.703125 42.578125 16.703125 
Q 45.609375 20.703125 45.609375 27.984375 
Q 45.609375 35.296875 42.578125 39.296875 
Q 39.546875 43.3125 34.078125 43.3125 
z
" id="DejaVuSans-Bold-103"/>
       <path d="M 8.40625 75.984375 
L 25.875 75.984375 
L 25.875 0 
L 8.40625 0 
z
" id="DejaVuSans-Bold-108"/>
       <path d="M 59.078125 45.609375 
Q 62.40625 50.6875 66.96875 53.34375 
Q 71.53125 56 77 56 
Q 86.421875 56 91.359375 50.1875 
Q 96.296875 44.390625 96.296875 33.296875 
L 96.296875 0 
L 78.71875 0 
L 78.71875 28.515625 
Q 78.765625 29.15625 78.78125 29.828125 
Q 78.8125 30.515625 78.8125 31.78125 
Q 78.8125 37.59375 77.09375 40.203125 
Q 75.390625 42.828125 71.578125 42.828125 
Q 66.609375 42.828125 63.890625 38.71875 
Q 61.1875 34.625 61.078125 26.859375 
L 61.078125 0 
L 43.5 0 
L 43.5 28.515625 
Q 43.5 37.59375 41.9375 40.203125 
Q 40.375 42.828125 36.375 42.828125 
Q 31.34375 42.828125 28.609375 38.703125 
Q 25.875 34.578125 25.875 26.90625 
L 25.875 0 
L 8.296875 0 
L 8.296875 54.6875 
L 25.875 54.6875 
L 25.875 46.6875 
Q 29.109375 51.3125 33.28125 53.65625 
Q 37.453125 56 42.484375 56 
Q 48.140625 56 52.484375 53.265625 
Q 56.84375 50.53125 59.078125 45.609375 
z
" id="DejaVuSans-Bold-109"/>
      </defs>
      <use xlink:href="#DejaVuSans-Bold-103"/>
      <use x="71.582031" xlink:href="#DejaVuSans-Bold-108"/>
      <use x="105.859375" xlink:href="#DejaVuSans-Bold-105"/>
      <use x="140.136719" xlink:href="#DejaVuSans-Bold-109"/>
      <use x="244.335938" xlink:href="#DejaVuSans-Bold-112"/>
      <use x="315.917969" xlink:href="#DejaVuSans-Bold-115"/>
      <use x="375.439453" xlink:href="#DejaVuSans-Bold-101"/>
      <use x="443.261719" xlink:href="#DejaVuSans-Bold-32"/>
      <use x="478.076172" xlink:href="#DejaVuSans-Bold-115"/>
      <use x="537.597656" xlink:href="#DejaVuSans-Bold-99"/>
      <use x="596.875" xlink:href="#DejaVuSans-Bold-97"/>
      <use x="664.355469" xlink:href="#DejaVuSans-Bold-108"/>
      <use x="698.632812" xlink:href="#DejaVuSans-Bold-101"/>
     </g>
    </g>
    <g id="patch_4">
     <path d="M 265.68 50.4 
L 393.12 50.4 
L 393.12 10.8 
L 265.68 10.8 
z
" style="fill:#40466e;stroke:#ffffff;stroke-linejoin:miter;"/>
    </g>
    <g id="text_3">
     <!-- num patches -->
     <g style="fill:#ffffff;" transform="translate(271.315 35.015)scale(0.16 -0.16)">
      <defs>
       <path d="M 63.375 33.296875 
L 63.375 0 
L 45.796875 0 
L 45.796875 5.421875 
L 45.796875 25.484375 
Q 45.796875 32.5625 45.484375 35.25 
Q 45.171875 37.9375 44.390625 39.203125 
Q 43.359375 40.921875 41.59375 41.875 
Q 39.84375 42.828125 37.59375 42.828125 
Q 32.125 42.828125 29 38.59375 
Q 25.875 34.375 25.875 26.90625 
L 25.875 0 
L 8.40625 0 
L 8.40625 54.6875 
L 25.875 54.6875 
L 25.875 46.6875 
Q 29.828125 51.46875 34.265625 53.734375 
Q 38.71875 56 44.09375 56 
Q 53.5625 56 58.46875 50.1875 
Q 63.375 44.390625 63.375 33.296875 
z
" id="DejaVuSans-Bold-110"/>
       <path d="M 7.8125 21.296875 
L 7.8125 54.6875 
L 25.390625 54.6875 
L 25.390625 49.21875 
Q 25.390625 44.78125 25.34375 38.0625 
Q 25.296875 31.34375 25.296875 29.109375 
Q 25.296875 22.515625 25.640625 19.609375 
Q 25.984375 16.703125 26.8125 15.375 
Q 27.875 13.671875 29.609375 12.734375 
Q 31.34375 11.8125 33.59375 11.8125 
Q 39.0625 11.8125 42.1875 16.015625 
Q 45.3125 20.21875 45.3125 27.6875 
L 45.3125 54.6875 
L 62.796875 54.6875 
L 62.796875 0 
L 45.3125 0 
L 45.3125 7.90625 
Q 41.359375 3.125 36.9375 0.84375 
Q 32.515625 -1.421875 27.203125 -1.421875 
Q 17.71875 -1.421875 12.765625 4.390625 
Q 7.8125 10.203125 7.8125 21.296875 
z
" id="DejaVuSans-Bold-117"/>
      </defs>
      <use xlink:href="#DejaVuSans-Bold-110"/>
      <use x="71.191406" xlink:href="#DejaVuSans-Bold-117"/>
      <use x="142.382812" xlink:href="#DejaVuSans-Bold-109"/>
      <use x="246.582031" xlink:href="#DejaVuSans-Bold-32"/>
      <use x="281.396484" xlink:href="#DejaVuSans-Bold-112"/>
      <use x="352.978516" xlink:href="#DejaVuSans-Bold-97"/>
      <use x="420.458984" xlink:href="#DejaVuSans-Bold-116"/>
      <use x="468.261719" xlink:href="#DejaVuSans-Bold-99"/>
      <use x="527.539062" xlink:href="#DejaVuSans-Bold-104"/>
      <use x="598.730469" xlink:href="#DejaVuSans-Bold-101"/>
      <use x="666.552734" xlink:href="#DejaVuSans-Bold-115"/>
     </g>
    </g>
    <g id="patch_5">
     <path d="M 393.12 50.4 
L 520.56 50.4 
L 520.56 10.8 
L 393.12 10.8 
z
" style="fill:#40466e;stroke:#ffffff;stroke-linejoin:miter;"/>
    </g>
    <g id="text_4">
     <!-- num glimpses -->
     <g style="fill:#ffffff;" transform="translate(394.10625 34.9525)scale(0.16 -0.16)">
      <use xlink:href="#DejaVuSans-Bold-110"/>
      <use x="71.191406" xlink:href="#DejaVuSans-Bold-117"/>
      <use x="142.382812" xlink:href="#DejaVuSans-Bold-109"/>
      <use x="246.582031" xlink:href="#DejaVuSans-Bold-32"/>
      <use x="281.396484" xlink:href="#DejaVuSans-Bold-103"/>
      <use x="352.978516" xlink:href="#DejaVuSans-Bold-108"/>
      <use x="387.255859" xlink:href="#DejaVuSans-Bold-105"/>
      <use x="421.533203" xlink:href="#DejaVuSans-Bold-109"/>
      <use x="525.732422" xlink:href="#DejaVuSans-Bold-112"/>
      <use x="597.314453" xlink:href="#DejaVuSans-Bold-115"/>
      <use x="656.835938" xlink:href="#DejaVuSans-Bold-101"/>
      <use x="724.658203" xlink:href="#DejaVuSans-Bold-115"/>
     </g>
    </g>
    <g id="patch_6">
     <path d="M 520.56 50.4 
L 648 50.4 
L 648 10.8 
L 520.56 10.8 
z
" style="fill:#40466e;stroke:#ffffff;stroke-linejoin:miter;"/>
    </g>
    <g id="text_5">
     <!-- batch size -->
     <g style="fill:#ffffff;" transform="translate(538.5225 35.015)scale(0.16 -0.16)">
      <defs>
       <path d="M 37.5 11.28125 
Q 43.109375 11.28125 46.0625 15.375 
Q 49.03125 19.484375 49.03125 27.296875 
Q 49.03125 35.109375 46.0625 39.203125 
Q 43.109375 43.3125 37.5 43.3125 
Q 31.890625 43.3125 28.875 39.1875 
Q 25.875 35.0625 25.875 27.296875 
Q 25.875 19.53125 28.875 15.40625 
Q 31.890625 11.28125 37.5 11.28125 
z
M 25.875 46.6875 
Q 29.5 51.46875 33.890625 53.734375 
Q 38.28125 56 44 56 
Q 54.109375 56 60.59375 47.96875 
Q 67.09375 39.9375 67.09375 27.296875 
Q 67.09375 14.65625 60.59375 6.609375 
Q 54.109375 -1.421875 44 -1.421875 
Q 38.28125 -1.421875 33.890625 0.84375 
Q 29.5 3.125 25.875 7.90625 
L 25.875 0 
L 8.40625 0 
L 8.40625 75.984375 
L 25.875 75.984375 
z
" id="DejaVuSans-Bold-98"/>
      </defs>
      <use xlink:href="#DejaVuSans-Bold-98"/>
      <use x="71.582031" xlink:href="#DejaVuSans-Bold-97"/>
      <use x="139.0625" xlink:href="#DejaVuSans-Bold-116"/>
      <use x="186.865234" xlink:href="#DejaVuSans-Bold-99"/>
      <use x="246.142578" xlink:href="#DejaVuSans-Bold-104"/>
      <use x="317.333984" xlink:href="#DejaVuSans-Bold-32"/>
      <use x="352.148438" xlink:href="#DejaVuSans-Bold-115"/>
      <use x="411.669922" xlink:href="#DejaVuSans-Bold-105"/>
      <use x="445.947266" xlink:href="#DejaVuSans-Bold-122"/>
      <use x="504.150391" xlink:href="#DejaVuSans-Bold-101"/>
     </g>
    </g>
    <g id="patch_7">
     <path d="M 648 50.4 
L 775.44 50.4 
L 775.44 10.8 
L 648 10.8 
z
" style="fill:#40466e;stroke:#ffffff;stroke-linejoin:miter;"/>
    </g>
    <g id="text_6">
     <!-- epochs -->
     <g style="fill:#ffffff;" transform="translate(679.8725 35.015)scale(0.16 -0.16)">
      <defs>
       <path d="M 34.421875 43.5 
Q 28.609375 43.5 25.5625 39.328125 
Q 22.515625 35.15625 22.515625 27.296875 
Q 22.515625 19.4375 25.5625 15.25 
Q 28.609375 11.078125 34.421875 11.078125 
Q 40.140625 11.078125 43.15625 15.25 
Q 46.1875 19.4375 46.1875 27.296875 
Q 46.1875 35.15625 43.15625 39.328125 
Q 40.140625 43.5 34.421875 43.5 
z
M 34.421875 56 
Q 48.53125 56 56.46875 48.375 
Q 64.40625 40.765625 64.40625 27.296875 
Q 64.40625 13.8125 56.46875 6.1875 
Q 48.53125 -1.421875 34.421875 -1.421875 
Q 20.265625 -1.421875 12.28125 6.1875 
Q 4.296875 13.8125 4.296875 27.296875 
Q 4.296875 40.765625 12.28125 48.375 
Q 20.265625 56 34.421875 56 
z
" id="DejaVuSans-Bold-111"/>
      </defs>
      <use xlink:href="#DejaVuSans-Bold-101"/>
      <use x="67.822266" xlink:href="#DejaVuSans-Bold-112"/>
      <use x="139.404297" xlink:href="#DejaVuSans-Bold-111"/>
      <use x="208.105469" xlink:href="#DejaVuSans-Bold-99"/>
      <use x="267.382812" xlink:href="#DejaVuSans-Bold-104"/>
      <use x="338.574219" xlink:href="#DejaVuSans-Bold-115"/>
     </g>
    </g>
    <g id="patch_8">
     <path d="M 775.44 50.4 
L 902.88 50.4 
L 902.88 10.8 
L 775.44 10.8 
z
" style="fill:#40466e;stroke:#ffffff;stroke-linejoin:miter;"/>
    </g>
    <g id="text_7">
     <!-- lr -->
     <g style="fill:#ffffff;" transform="translate(832.4725 35.015)scale(0.16 -0.16)">
      <defs>
       <path d="M 49.03125 39.796875 
Q 46.734375 40.875 44.453125 41.375 
Q 42.1875 41.890625 39.890625 41.890625 
Q 33.15625 41.890625 29.515625 37.5625 
Q 25.875 33.25 25.875 25.203125 
L 25.875 0 
L 8.40625 0 
L 8.40625 54.6875 
L 25.875 54.6875 
L 25.875 45.703125 
Q 29.25 51.078125 33.609375 53.53125 
Q 37.984375 56 44.09375 56 
Q 44.96875 56 45.984375 55.921875 
Q 47.015625 55.859375 48.96875 55.609375 
z
" id="DejaVuSans-Bold-114"/>
      </defs>
      <use xlink:href="#DejaVuSans-Bold-108"/>
      <use x="34.277344" xlink:href="#DejaVuSans-Bold-114"/>
     </g>
    </g>
    <g id="patch_9">
     <path d="M 902.88 50.4 
L 1030.32 50.4 
L 1030.32 10.8 
L 902.88 10.8 
z
" style="fill:#40466e;stroke:#ffffff;stroke-linejoin:miter;"/>
    </g>
    <g id="text_8">
     <!-- num train -->
     <g style="fill:#ffffff;" transform="translate(922.48375 35.015)scale(0.16 -0.16)">
      <use xlink:href="#DejaVuSans-Bold-110"/>
      <use x="71.191406" xlink:href="#DejaVuSans-Bold-117"/>
      <use x="142.382812" xlink:href="#DejaVuSans-Bold-109"/>
      <use x="246.582031" xlink:href="#DejaVuSans-Bold-32"/>
      <use x="281.396484" xlink:href="#DejaVuSans-Bold-116"/>
      <use x="329.199219" xlink:href="#DejaVuSans-Bold-114"/>
      <use x="378.515625" xlink:href="#DejaVuSans-Bold-97"/>
      <use x="445.996094" xlink:href="#DejaVuSans-Bold-105"/>
      <use x="480.273438" xlink:href="#DejaVuSans-Bold-110"/>
     </g>
    </g>
    <g id="patch_10">
     <path d="M 1030.32 50.4 
L 1157.76 50.4 
L 1157.76 10.8 
L 1030.32 10.8 
z
" style="fill:#40466e;stroke:#ffffff;stroke-linejoin:miter;"/>
    </g>
    <g id="text_9">
     <!-- num valid -->
     <g style="fill:#ffffff;" transform="translate(1049.70375 35.015)scale(0.16 -0.16)">
      <defs>
       <path d="M 1.515625 54.6875 
L 19 54.6875 
L 32.625 16.890625 
L 46.1875 54.6875 
L 63.71875 54.6875 
L 42.1875 0 
L 23 0 
z
" id="DejaVuSans-Bold-118"/>
       <path d="M 45.609375 46.6875 
L 45.609375 75.984375 
L 63.1875 75.984375 
L 63.1875 0 
L 45.609375 0 
L 45.609375 7.90625 
Q 42 3.078125 37.640625 0.828125 
Q 33.296875 -1.421875 27.59375 -1.421875 
Q 17.484375 -1.421875 10.984375 6.609375 
Q 4.5 14.65625 4.5 27.296875 
Q 4.5 39.9375 10.984375 47.96875 
Q 17.484375 56 27.59375 56 
Q 33.25 56 37.625 53.734375 
Q 42 51.46875 45.609375 46.6875 
z
M 34.078125 11.28125 
Q 39.703125 11.28125 42.65625 15.375 
Q 45.609375 19.484375 45.609375 27.296875 
Q 45.609375 35.109375 42.65625 39.203125 
Q 39.703125 43.3125 34.078125 43.3125 
Q 28.515625 43.3125 25.5625 39.203125 
Q 22.609375 35.109375 22.609375 27.296875 
Q 22.609375 19.484375 25.5625 15.375 
Q 28.515625 11.28125 34.078125 11.28125 
z
" id="DejaVuSans-Bold-100"/>
      </defs>
      <use xlink:href="#DejaVuSans-Bold-110"/>
      <use x="71.191406" xlink:href="#DejaVuSans-Bold-117"/>
      <use x="142.382812" xlink:href="#DejaVuSans-Bold-109"/>
      <use x="246.582031" xlink:href="#DejaVuSans-Bold-32"/>
      <use x="281.396484" xlink:href="#DejaVuSans-Bold-118"/>
      <use x="346.582031" xlink:href="#DejaVuSans-Bold-97"/>
      <use x="414.0625" xlink:href="#DejaVuSans-Bold-108"/>
      <use x="448.339844" xlink:href="#DejaVuSans-Bold-105"/>
      <use x="482.617188" xlink:href="#DejaVuSans-Bold-100"/>
     </g>
    </g>
    <g id="patch_11">
     <path d="M 1157.76 50.4 
L 1285.2 50.4 
L 1285.2 10.8 
L 1157.76 10.8 
z
" style="fill:#40466e;stroke:#ffffff;stroke-linejoin:miter;"/>
    </g>
    <g id="text_10">
     <!-- num test -->
     <g style="fill:#ffffff;" transform="translate(1181.13375 35.015)scale(0.16 -0.16)">
      <use xlink:href="#DejaVuSans-Bold-110"/>
      <use x="71.191406" xlink:href="#DejaVuSans-Bold-117"/>
      <use x="142.382812" xlink:href="#DejaVuSans-Bold-109"/>
      <use x="246.582031" xlink:href="#DejaVuSans-Bold-32"/>
      <use x="281.396484" xlink:href="#DejaVuSans-Bold-116"/>
      <use x="329.199219" xlink:href="#DejaVuSans-Bold-101"/>
      <use x="397.021484" xlink:href="#DejaVuSans-Bold-115"/>
      <use x="456.542969" xlink:href="#DejaVuSans-Bold-116"/>
     </g>
    </g>
    <g id="patch_12">
     <path d="M 10.8 90 
L 138.24 90 
L 138.24 50.4 
L 10.8 50.4 
z
" style="fill:#ffffff;stroke:#ffffff;stroke-linejoin:miter;"/>
    </g>
    <g id="text_11">
     <!-- 16 -->
     <g transform="translate(105.136 74.615)scale(0.16 -0.16)">
      <defs>
       <path d="M 12.40625 8.296875 
L 28.515625 8.296875 
L 28.515625 63.921875 
L 10.984375 60.40625 
L 10.984375 69.390625 
L 28.421875 72.90625 
L 38.28125 72.90625 
L 38.28125 8.296875 
L 54.390625 8.296875 
L 54.390625 0 
L 12.40625 0 
z
" id="DejaVuSans-49"/>
       <path d="M 33.015625 40.375 
Q 26.375 40.375 22.484375 35.828125 
Q 18.609375 31.296875 18.609375 23.390625 
Q 18.609375 15.53125 22.484375 10.953125 
Q 26.375 6.390625 33.015625 6.390625 
Q 39.65625 6.390625 43.53125 10.953125 
Q 47.40625 15.53125 47.40625 23.390625 
Q 47.40625 31.296875 43.53125 35.828125 
Q 39.65625 40.375 33.015625 40.375 
z
M 52.59375 71.296875 
L 52.59375 62.3125 
Q 48.875 64.0625 45.09375 64.984375 
Q 41.3125 65.921875 37.59375 65.921875 
Q 27.828125 65.921875 22.671875 59.328125 
Q 17.53125 52.734375 16.796875 39.40625 
Q 19.671875 43.65625 24.015625 45.921875 
Q 28.375 48.1875 33.59375 48.1875 
Q 44.578125 48.1875 50.953125 41.515625 
Q 57.328125 34.859375 57.328125 23.390625 
Q 57.328125 12.15625 50.6875 5.359375 
Q 44.046875 -1.421875 33.015625 -1.421875 
Q 20.359375 -1.421875 13.671875 8.265625 
Q 6.984375 17.96875 6.984375 36.375 
Q 6.984375 53.65625 15.1875 63.9375 
Q 23.390625 74.21875 37.203125 74.21875 
Q 40.921875 74.21875 44.703125 73.484375 
Q 48.484375 72.75 52.59375 71.296875 
z
" id="DejaVuSans-54"/>
      </defs>
      <use xlink:href="#DejaVuSans-49"/>
      <use x="63.623047" xlink:href="#DejaVuSans-54"/>
     </g>
    </g>
    <g id="patch_13">
     <path d="M 138.24 90 
L 265.68 90 
L 265.68 50.4 
L 138.24 50.4 
z
" style="fill:#ffffff;stroke:#ffffff;stroke-linejoin:miter;"/>
    </g>
    <g id="text_12">
     <!-- 2 -->
     <g transform="translate(242.756 74.615)scale(0.16 -0.16)">
      <defs>
       <path d="M 19.1875 8.296875 
L 53.609375 8.296875 
L 53.609375 0 
L 7.328125 0 
L 7.328125 8.296875 
Q 12.9375 14.109375 22.625 23.890625 
Q 32.328125 33.6875 34.8125 36.53125 
Q 39.546875 41.84375 41.421875 45.53125 
Q 43.3125 49.21875 43.3125 52.78125 
Q 43.3125 58.59375 39.234375 62.25 
Q 35.15625 65.921875 28.609375 65.921875 
Q 23.96875 65.921875 18.8125 64.3125 
Q 13.671875 62.703125 7.8125 59.421875 
L 7.8125 69.390625 
Q 13.765625 71.78125 18.9375 73 
Q 24.125 74.21875 28.421875 74.21875 
Q 39.75 74.21875 46.484375 68.546875 
Q 53.21875 62.890625 53.21875 53.421875 
Q 53.21875 48.921875 51.53125 44.890625 
Q 49.859375 40.875 45.40625 35.40625 
Q 44.1875 33.984375 37.640625 27.21875 
Q 31.109375 20.453125 19.1875 8.296875 
z
" id="DejaVuSans-50"/>
      </defs>
      <use xlink:href="#DejaVuSans-50"/>
     </g>
    </g>
    <g id="patch_14">
     <path d="M 265.68 90 
L 393.12 90 
L 393.12 50.4 
L 265.68 50.4 
z
" style="fill:#ffffff;stroke:#ffffff;stroke-linejoin:miter;"/>
    </g>
    <g id="text_13">
     <!-- 3 -->
     <g transform="translate(370.196 74.615)scale(0.16 -0.16)">
      <defs>
       <path d="M 40.578125 39.3125 
Q 47.65625 37.796875 51.625 33 
Q 55.609375 28.21875 55.609375 21.1875 
Q 55.609375 10.40625 48.1875 4.484375 
Q 40.765625 -1.421875 27.09375 -1.421875 
Q 22.515625 -1.421875 17.65625 -0.515625 
Q 12.796875 0.390625 7.625 2.203125 
L 7.625 11.71875 
Q 11.71875 9.328125 16.59375 8.109375 
Q 21.484375 6.890625 26.8125 6.890625 
Q 36.078125 6.890625 40.9375 10.546875 
Q 45.796875 14.203125 45.796875 21.1875 
Q 45.796875 27.640625 41.28125 31.265625 
Q 36.765625 34.90625 28.71875 34.90625 
L 20.21875 34.90625 
L 20.21875 43.015625 
L 29.109375 43.015625 
Q 36.375 43.015625 40.234375 45.921875 
Q 44.09375 48.828125 44.09375 54.296875 
Q 44.09375 59.90625 40.109375 62.90625 
Q 36.140625 65.921875 28.71875 65.921875 
Q 24.65625 65.921875 20.015625 65.03125 
Q 15.375 64.15625 9.8125 62.3125 
L 9.8125 71.09375 
Q 15.4375 72.65625 20.34375 73.4375 
Q 25.25 74.21875 29.59375 74.21875 
Q 40.828125 74.21875 47.359375 69.109375 
Q 53.90625 64.015625 53.90625 55.328125 
Q 53.90625 49.265625 50.4375 45.09375 
Q 46.96875 40.921875 40.578125 39.3125 
z
" id="DejaVuSans-51"/>
      </defs>
      <use xlink:href="#DejaVuSans-51"/>
     </g>
    </g>
    <g id="patch_15">
     <path d="M 393.12 90 
L 520.56 90 
L 520.56 50.4 
L 393.12 50.4 
z
" style="fill:#ffffff;stroke:#ffffff;stroke-linejoin:miter;"/>
    </g>
    <g id="text_14">
     <!-- 4 -->
     <g transform="translate(497.636 74.615)scale(0.16 -0.16)">
      <defs>
       <path d="M 37.796875 64.3125 
L 12.890625 25.390625 
L 37.796875 25.390625 
z
M 35.203125 72.90625 
L 47.609375 72.90625 
L 47.609375 25.390625 
L 58.015625 25.390625 
L 58.015625 17.1875 
L 47.609375 17.1875 
L 47.609375 0 
L 37.796875 0 
L 37.796875 17.1875 
L 4.890625 17.1875 
L 4.890625 26.703125 
z
" id="DejaVuSans-52"/>
      </defs>
      <use xlink:href="#DejaVuSans-52"/>
     </g>
    </g>
    <g id="patch_16">
     <path d="M 520.56 90 
L 648 90 
L 648 50.4 
L 520.56 50.4 
z
" style="fill:#ffffff;stroke:#ffffff;stroke-linejoin:miter;"/>
    </g>
    <g id="text_15">
     <!-- 512 -->
     <g transform="translate(604.716 74.615)scale(0.16 -0.16)">
      <defs>
       <path d="M 10.796875 72.90625 
L 49.515625 72.90625 
L 49.515625 64.59375 
L 19.828125 64.59375 
L 19.828125 46.734375 
Q 21.96875 47.46875 24.109375 47.828125 
Q 26.265625 48.1875 28.421875 48.1875 
Q 40.625 48.1875 47.75 41.5 
Q 54.890625 34.8125 54.890625 23.390625 
Q 54.890625 11.625 47.5625 5.09375 
Q 40.234375 -1.421875 26.90625 -1.421875 
Q 22.3125 -1.421875 17.546875 -0.640625 
Q 12.796875 0.140625 7.71875 1.703125 
L 7.71875 11.625 
Q 12.109375 9.234375 16.796875 8.0625 
Q 21.484375 6.890625 26.703125 6.890625 
Q 35.15625 6.890625 40.078125 11.328125 
Q 45.015625 15.765625 45.015625 23.390625 
Q 45.015625 31 40.078125 35.4375 
Q 35.15625 39.890625 26.703125 39.890625 
Q 22.75 39.890625 18.8125 39.015625 
Q 14.890625 38.140625 10.796875 36.28125 
z
" id="DejaVuSans-53"/>
      </defs>
      <use xlink:href="#DejaVuSans-53"/>
      <use x="63.623047" xlink:href="#DejaVuSans-49"/>
      <use x="127.246094" xlink:href="#DejaVuSans-50"/>
     </g>
    </g>
    <g id="patch_17">
     <path d="M 648 90 
L 775.44 90 
L 775.44 50.4 
L 648 50.4 
z
" style="fill:#ffffff;stroke:#ffffff;stroke-linejoin:miter;"/>
    </g>
    <g id="text_16">
     <!-- 200 -->
     <g transform="translate(732.156 74.615)scale(0.16 -0.16)">
      <defs>
       <path d="M 31.78125 66.40625 
Q 24.171875 66.40625 20.328125 58.90625 
Q 16.5 51.421875 16.5 36.375 
Q 16.5 21.390625 20.328125 13.890625 
Q 24.171875 6.390625 31.78125 6.390625 
Q 39.453125 6.390625 43.28125 13.890625 
Q 47.125 21.390625 47.125 36.375 
Q 47.125 51.421875 43.28125 58.90625 
Q 39.453125 66.40625 31.78125 66.40625 
z
M 31.78125 74.21875 
Q 44.046875 74.21875 50.515625 64.515625 
Q 56.984375 54.828125 56.984375 36.375 
Q 56.984375 17.96875 50.515625 8.265625 
Q 44.046875 -1.421875 31.78125 -1.421875 
Q 19.53125 -1.421875 13.0625 8.265625 
Q 6.59375 17.96875 6.59375 36.375 
Q 6.59375 54.828125 13.0625 64.515625 
Q 19.53125 74.21875 31.78125 74.21875 
z
" id="DejaVuSans-48"/>
      </defs>
      <use xlink:href="#DejaVuSans-50"/>
      <use x="63.623047" xlink:href="#DejaVuSans-48"/>
      <use x="127.246094" xlink:href="#DejaVuSans-48"/>
     </g>
    </g>
    <g id="patch_18">
     <path d="M 775.44 90 
L 902.88 90 
L 902.88 50.4 
L 775.44 50.4 
z
" style="fill:#ffffff;stroke:#ffffff;stroke-linejoin:miter;"/>
    </g>
    <g id="text_17">
     <!-- 0.001 -->
     <g transform="translate(844.331 74.615)scale(0.16 -0.16)">
      <defs>
       <path d="M 10.6875 12.40625 
L 21 12.40625 
L 21 0 
L 10.6875 0 
z
" id="DejaVuSans-46"/>
      </defs>
      <use xlink:href="#DejaVuSans-48"/>
      <use x="63.623047" xlink:href="#DejaVuSans-46"/>
      <use x="95.410156" xlink:href="#DejaVuSans-48"/>
      <use x="159.033203" xlink:href="#DejaVuSans-48"/>
      <use x="222.65625" xlink:href="#DejaVuSans-49"/>
     </g>
    </g>
    <g id="patch_19">
     <path d="M 902.88 90 
L 1030.32 90 
L 1030.32 50.4 
L 902.88 50.4 
z
" style="fill:#ffffff;stroke:#ffffff;stroke-linejoin:miter;"/>
    </g>
    <g id="text_18">
     <!-- 42501 -->
     <g transform="translate(966.676 74.615)scale(0.16 -0.16)">
      <use xlink:href="#DejaVuSans-52"/>
      <use x="63.623047" xlink:href="#DejaVuSans-50"/>
      <use x="127.246094" xlink:href="#DejaVuSans-53"/>
      <use x="190.869141" xlink:href="#DejaVuSans-48"/>
      <use x="254.492188" xlink:href="#DejaVuSans-49"/>
     </g>
    </g>
    <g id="patch_20">
     <path d="M 1030.32 90 
L 1157.76 90 
L 1157.76 50.4 
L 1030.32 50.4 
z
" style="fill:#ffffff;stroke:#ffffff;stroke-linejoin:miter;"/>
    </g>
    <g id="text_19">
     <!-- 4999 -->
     <g transform="translate(1104.296 74.615)scale(0.16 -0.16)">
      <defs>
       <path d="M 10.984375 1.515625 
L 10.984375 10.5 
Q 14.703125 8.734375 18.5 7.8125 
Q 22.3125 6.890625 25.984375 6.890625 
Q 35.75 6.890625 40.890625 13.453125 
Q 46.046875 20.015625 46.78125 33.40625 
Q 43.953125 29.203125 39.59375 26.953125 
Q 35.25 24.703125 29.984375 24.703125 
Q 19.046875 24.703125 12.671875 31.3125 
Q 6.296875 37.9375 6.296875 49.421875 
Q 6.296875 60.640625 12.9375 67.421875 
Q 19.578125 74.21875 30.609375 74.21875 
Q 43.265625 74.21875 49.921875 64.515625 
Q 56.59375 54.828125 56.59375 36.375 
Q 56.59375 19.140625 48.40625 8.859375 
Q 40.234375 -1.421875 26.421875 -1.421875 
Q 22.703125 -1.421875 18.890625 -0.6875 
Q 15.09375 0.046875 10.984375 1.515625 
z
M 30.609375 32.421875 
Q 37.25 32.421875 41.125 36.953125 
Q 45.015625 41.5 45.015625 49.421875 
Q 45.015625 57.28125 41.125 61.84375 
Q 37.25 66.40625 30.609375 66.40625 
Q 23.96875 66.40625 20.09375 61.84375 
Q 16.21875 57.28125 16.21875 49.421875 
Q 16.21875 41.5 20.09375 36.953125 
Q 23.96875 32.421875 30.609375 32.421875 
z
" id="DejaVuSans-57"/>
      </defs>
      <use xlink:href="#DejaVuSans-52"/>
      <use x="63.623047" xlink:href="#DejaVuSans-57"/>
      <use x="127.246094" xlink:href="#DejaVuSans-57"/>
      <use x="190.869141" xlink:href="#DejaVuSans-57"/>
     </g>
    </g>
    <g id="patch_21">
     <path d="M 1157.76 90 
L 1285.2 90 
L 1285.2 50.4 
L 1157.76 50.4 
z
" style="fill:#ffffff;stroke:#ffffff;stroke-linejoin:miter;"/>
    </g>
    <g id="text_20">
     <!-- 2499 -->
     <g transform="translate(1231.736 74.615)scale(0.16 -0.16)">
      <use xlink:href="#DejaVuSans-50"/>
      <use x="63.623047" xlink:href="#DejaVuSans-52"/>
      <use x="127.246094" xlink:href="#DejaVuSans-57"/>
      <use x="190.869141" xlink:href="#DejaVuSans-57"/>
     </g>
    </g>
   </g>
  </g>
 </g>
</svg>
