<?xml version="1.0" encoding="utf-8" standalone="no"?>
<!DOCTYPE svg PUBLIC "-//W3C//DTD SVG 1.1//EN"
  "http://www.w3.org/Graphics/SVG/1.1/DTD/svg11.dtd">
<!-- Created with matplotlib (https://matplotlib.org/) -->
<svg height="302.4pt" version="1.1" viewBox="0 0 648 302.4" width="648pt" xmlns="http://www.w3.org/2000/svg" xmlns:xlink="http://www.w3.org/1999/xlink">
 <metadata>
  <rdf:RDF xmlns:cc="http://creativecommons.org/ns#" xmlns:dc="http://purl.org/dc/elements/1.1/" xmlns:rdf="http://www.w3.org/1999/02/22-rdf-syntax-ns#">
   <cc:Work>
    <dc:type rdf:resource="http://purl.org/dc/dcmitype/StillImage"/>
    <dc:date>2020-10-19T17:20:30.369499</dc:date>
    <dc:format>image/svg+xml</dc:format>
    <dc:creator>
     <cc:Agent>
      <dc:title>Matplotlib v3.3.1, https://matplotlib.org/</dc:title>
     </cc:Agent>
    </dc:creator>
   </cc:Work>
  </rdf:RDF>
 </metadata>
 <defs>
  <style type="text/css">*{stroke-linecap:butt;stroke-linejoin:round;}</style>
 </defs>
 <g id="figure_1">
  <g id="patch_1">
   <path d="M 0 302.4 
L 648 302.4 
L 648 0 
L 0 0 
z
" style="fill:#ffffff;"/>
  </g>
  <g id="axes_1">
   <g id="table_1">
    <g id="patch_2">
     <path d="M 10.8 57.6 
L 219.6 57.6 
L 219.6 10.8 
L 10.8 10.8 
z
" style="fill:#40466e;stroke:#ffffff;stroke-linejoin:miter;"/>
    </g>
    <g id="text_1">
     <!-- Predicted -->
     <g style="fill:#ffffff;" transform="translate(71.7775 38.615)scale(0.16 -0.16)">
      <defs>
       <path d="M 9.1875 72.90625 
L 40.375 72.90625 
Q 54.296875 72.90625 61.734375 66.71875 
Q 69.1875 60.546875 69.1875 49.125 
Q 69.1875 37.640625 61.734375 31.46875 
Q 54.296875 25.296875 40.375 25.296875 
L 27.984375 25.296875 
L 27.984375 0 
L 9.1875 0 
z
M 27.984375 59.28125 
L 27.984375 38.921875 
L 38.375 38.921875 
Q 43.84375 38.921875 46.828125 41.578125 
Q 49.8125 44.234375 49.8125 49.125 
Q 49.8125 54 46.828125 56.640625 
Q 43.84375 59.28125 38.375 59.28125 
z
" id="DejaVuSans-Bold-80"/>
       <path d="M 49.03125 39.796875 
Q 46.734375 40.875 44.453125 41.375 
Q 42.1875 41.890625 39.890625 41.890625 
Q 33.15625 41.890625 29.515625 37.5625 
Q 25.875 33.25 25.875 25.203125 
L 25.875 0 
L 8.40625 0 
L 8.40625 54.6875 
L 25.875 54.6875 
L 25.875 45.703125 
Q 29.25 51.078125 33.609375 53.53125 
Q 37.984375 56 44.09375 56 
Q 44.96875 56 45.984375 55.921875 
Q 47.015625 55.859375 48.96875 55.609375 
z
" id="DejaVuSans-Bold-114"/>
       <path d="M 62.984375 27.484375 
L 62.984375 22.515625 
L 22.125 22.515625 
Q 22.75 16.359375 26.5625 13.28125 
Q 30.375 10.203125 37.203125 10.203125 
Q 42.71875 10.203125 48.5 11.84375 
Q 54.296875 13.484375 60.40625 16.796875 
L 60.40625 3.328125 
Q 54.203125 0.984375 48 -0.21875 
Q 41.796875 -1.421875 35.59375 -1.421875 
Q 20.75 -1.421875 12.515625 6.125 
Q 4.296875 13.671875 4.296875 27.296875 
Q 4.296875 40.671875 12.375 48.328125 
Q 20.453125 56 34.625 56 
Q 47.515625 56 55.25 48.234375 
Q 62.984375 40.484375 62.984375 27.484375 
z
M 45.015625 33.296875 
Q 45.015625 38.28125 42.109375 41.328125 
Q 39.203125 44.390625 34.515625 44.390625 
Q 29.4375 44.390625 26.265625 41.53125 
Q 23.09375 38.671875 22.3125 33.296875 
z
" id="DejaVuSans-Bold-101"/>
       <path d="M 45.609375 46.6875 
L 45.609375 75.984375 
L 63.1875 75.984375 
L 63.1875 0 
L 45.609375 0 
L 45.609375 7.90625 
Q 42 3.078125 37.640625 0.828125 
Q 33.296875 -1.421875 27.59375 -1.421875 
Q 17.484375 -1.421875 10.984375 6.609375 
Q 4.5 14.65625 4.5 27.296875 
Q 4.5 39.9375 10.984375 47.96875 
Q 17.484375 56 27.59375 56 
Q 33.25 56 37.625 53.734375 
Q 42 51.46875 45.609375 46.6875 
z
M 34.078125 11.28125 
Q 39.703125 11.28125 42.65625 15.375 
Q 45.609375 19.484375 45.609375 27.296875 
Q 45.609375 35.109375 42.65625 39.203125 
Q 39.703125 43.3125 34.078125 43.3125 
Q 28.515625 43.3125 25.5625 39.203125 
Q 22.609375 35.109375 22.609375 27.296875 
Q 22.609375 19.484375 25.5625 15.375 
Q 28.515625 11.28125 34.078125 11.28125 
z
" id="DejaVuSans-Bold-100"/>
       <path d="M 8.40625 54.6875 
L 25.875 54.6875 
L 25.875 0 
L 8.40625 0 
z
M 8.40625 75.984375 
L 25.875 75.984375 
L 25.875 61.71875 
L 8.40625 61.71875 
z
" id="DejaVuSans-Bold-105"/>
       <path d="M 52.59375 52.984375 
L 52.59375 38.71875 
Q 49.03125 41.15625 45.4375 42.328125 
Q 41.84375 43.5 37.984375 43.5 
Q 30.671875 43.5 26.59375 39.234375 
Q 22.515625 34.96875 22.515625 27.296875 
Q 22.515625 19.625 26.59375 15.34375 
Q 30.671875 11.078125 37.984375 11.078125 
Q 42.09375 11.078125 45.78125 12.296875 
Q 49.46875 13.53125 52.59375 15.921875 
L 52.59375 1.609375 
Q 48.484375 0.09375 44.265625 -0.65625 
Q 40.046875 -1.421875 35.796875 -1.421875 
Q 21 -1.421875 12.640625 6.171875 
Q 4.296875 13.765625 4.296875 27.296875 
Q 4.296875 40.828125 12.640625 48.40625 
Q 21 56 35.796875 56 
Q 40.09375 56 44.265625 55.25 
Q 48.4375 54.5 52.59375 52.984375 
z
" id="DejaVuSans-Bold-99"/>
       <path d="M 27.484375 70.21875 
L 27.484375 54.6875 
L 45.515625 54.6875 
L 45.515625 42.1875 
L 27.484375 42.1875 
L 27.484375 19 
Q 27.484375 15.1875 29 13.84375 
Q 30.515625 12.5 35.015625 12.5 
L 44 12.5 
L 44 0 
L 29 0 
Q 18.65625 0 14.328125 4.3125 
Q 10.015625 8.640625 10.015625 19 
L 10.015625 42.1875 
L 1.3125 42.1875 
L 1.3125 54.6875 
L 10.015625 54.6875 
L 10.015625 70.21875 
z
" id="DejaVuSans-Bold-116"/>
      </defs>
      <use xlink:href="#DejaVuSans-Bold-80"/>
      <use x="73.291016" xlink:href="#DejaVuSans-Bold-114"/>
      <use x="122.607422" xlink:href="#DejaVuSans-Bold-101"/>
      <use x="190.429688" xlink:href="#DejaVuSans-Bold-100"/>
      <use x="262.011719" xlink:href="#DejaVuSans-Bold-105"/>
      <use x="296.289062" xlink:href="#DejaVuSans-Bold-99"/>
      <use x="355.566406" xlink:href="#DejaVuSans-Bold-116"/>
      <use x="403.369141" xlink:href="#DejaVuSans-Bold-101"/>
      <use x="471.191406" xlink:href="#DejaVuSans-Bold-100"/>
     </g>
    </g>
    <g id="patch_3">
     <path d="M 219.6 57.6 
L 428.4 57.6 
L 428.4 10.8 
L 219.6 10.8 
z
" style="fill:#40466e;stroke:#ffffff;stroke-linejoin:miter;"/>
    </g>
    <g id="text_2">
     <!-- Ground-truth -->
     <g style="fill:#ffffff;" transform="translate(264.57375 38.615)scale(0.16 -0.16)">
      <defs>
       <path d="M 74.703125 5.421875 
Q 67.671875 2 60.109375 0.28125 
Q 52.546875 -1.421875 44.484375 -1.421875 
Q 26.265625 -1.421875 15.625 8.765625 
Q 4.984375 18.953125 4.984375 36.375 
Q 4.984375 54 15.8125 64.109375 
Q 26.65625 74.21875 45.515625 74.21875 
Q 52.78125 74.21875 59.4375 72.84375 
Q 66.109375 71.484375 72.015625 68.796875 
L 72.015625 53.71875 
Q 65.921875 57.171875 59.890625 58.875 
Q 53.859375 60.59375 47.796875 60.59375 
Q 36.578125 60.59375 30.5 54.3125 
Q 24.421875 48.046875 24.421875 36.375 
Q 24.421875 24.8125 30.28125 18.5 
Q 36.140625 12.203125 46.921875 12.203125 
Q 49.859375 12.203125 52.375 12.5625 
Q 54.890625 12.9375 56.890625 13.71875 
L 56.890625 27.875 
L 45.40625 27.875 
L 45.40625 40.484375 
L 74.703125 40.484375 
z
" id="DejaVuSans-Bold-71"/>
       <path d="M 34.421875 43.5 
Q 28.609375 43.5 25.5625 39.328125 
Q 22.515625 35.15625 22.515625 27.296875 
Q 22.515625 19.4375 25.5625 15.25 
Q 28.609375 11.078125 34.421875 11.078125 
Q 40.140625 11.078125 43.15625 15.25 
Q 46.1875 19.4375 46.1875 27.296875 
Q 46.1875 35.15625 43.15625 39.328125 
Q 40.140625 43.5 34.421875 43.5 
z
M 34.421875 56 
Q 48.53125 56 56.46875 48.375 
Q 64.40625 40.765625 64.40625 27.296875 
Q 64.40625 13.8125 56.46875 6.1875 
Q 48.53125 -1.421875 34.421875 -1.421875 
Q 20.265625 -1.421875 12.28125 6.1875 
Q 4.296875 13.8125 4.296875 27.296875 
Q 4.296875 40.765625 12.28125 48.375 
Q 20.265625 56 34.421875 56 
z
" id="DejaVuSans-Bold-111"/>
       <path d="M 7.8125 21.296875 
L 7.8125 54.6875 
L 25.390625 54.6875 
L 25.390625 49.21875 
Q 25.390625 44.78125 25.34375 38.0625 
Q 25.296875 31.34375 25.296875 29.109375 
Q 25.296875 22.515625 25.640625 19.609375 
Q 25.984375 16.703125 26.8125 15.375 
Q 27.875 13.671875 29.609375 12.734375 
Q 31.34375 11.8125 33.59375 11.8125 
Q 39.0625 11.8125 42.1875 16.015625 
Q 45.3125 20.21875 45.3125 27.6875 
L 45.3125 54.6875 
L 62.796875 54.6875 
L 62.796875 0 
L 45.3125 0 
L 45.3125 7.90625 
Q 41.359375 3.125 36.9375 0.84375 
Q 32.515625 -1.421875 27.203125 -1.421875 
Q 17.71875 -1.421875 12.765625 4.390625 
Q 7.8125 10.203125 7.8125 21.296875 
z
" id="DejaVuSans-Bold-117"/>
       <path d="M 63.375 33.296875 
L 63.375 0 
L 45.796875 0 
L 45.796875 5.421875 
L 45.796875 25.484375 
Q 45.796875 32.5625 45.484375 35.25 
Q 45.171875 37.9375 44.390625 39.203125 
Q 43.359375 40.921875 41.59375 41.875 
Q 39.84375 42.828125 37.59375 42.828125 
Q 32.125 42.828125 29 38.59375 
Q 25.875 34.375 25.875 26.90625 
L 25.875 0 
L 8.40625 0 
L 8.40625 54.6875 
L 25.875 54.6875 
L 25.875 46.6875 
Q 29.828125 51.46875 34.265625 53.734375 
Q 38.71875 56 44.09375 56 
Q 53.5625 56 58.46875 50.1875 
Q 63.375 44.390625 63.375 33.296875 
z
" id="DejaVuSans-Bold-110"/>
       <path d="M 5.421875 35.890625 
L 36.078125 35.890625 
L 36.078125 21.6875 
L 5.421875 21.6875 
z
" id="DejaVuSans-Bold-45"/>
       <path d="M 63.375 33.296875 
L 63.375 0 
L 45.796875 0 
L 45.796875 5.421875 
L 45.796875 25.390625 
Q 45.796875 32.5625 45.484375 35.25 
Q 45.171875 37.9375 44.390625 39.203125 
Q 43.359375 40.921875 41.59375 41.875 
Q 39.84375 42.828125 37.59375 42.828125 
Q 32.125 42.828125 29 38.59375 
Q 25.875 34.375 25.875 26.90625 
L 25.875 0 
L 8.40625 0 
L 8.40625 75.984375 
L 25.875 75.984375 
L 25.875 46.6875 
Q 29.828125 51.46875 34.265625 53.734375 
Q 38.71875 56 44.09375 56 
Q 53.5625 56 58.46875 50.1875 
Q 63.375 44.390625 63.375 33.296875 
z
" id="DejaVuSans-Bold-104"/>
      </defs>
      <use xlink:href="#DejaVuSans-Bold-71"/>
      <use x="82.080078" xlink:href="#DejaVuSans-Bold-114"/>
      <use x="131.396484" xlink:href="#DejaVuSans-Bold-111"/>
      <use x="200.097656" xlink:href="#DejaVuSans-Bold-117"/>
      <use x="271.289062" xlink:href="#DejaVuSans-Bold-110"/>
      <use x="342.480469" xlink:href="#DejaVuSans-Bold-100"/>
      <use x="414.0625" xlink:href="#DejaVuSans-Bold-45"/>
      <use x="455.566406" xlink:href="#DejaVuSans-Bold-116"/>
      <use x="503.369141" xlink:href="#DejaVuSans-Bold-114"/>
      <use x="552.685547" xlink:href="#DejaVuSans-Bold-117"/>
      <use x="623.876953" xlink:href="#DejaVuSans-Bold-116"/>
      <use x="671.679688" xlink:href="#DejaVuSans-Bold-104"/>
     </g>
    </g>
    <g id="patch_4">
     <path d="M 428.4 57.6 
L 637.2 57.6 
L 637.2 10.8 
L 428.4 10.8 
z
" style="fill:#40466e;stroke:#ffffff;stroke-linejoin:miter;"/>
    </g>
    <g id="text_3">
     <!-- MAE -->
     <g style="fill:#ffffff;" transform="translate(513.1825 38.615)scale(0.16 -0.16)">
      <defs>
       <path d="M 9.1875 72.90625 
L 33.109375 72.90625 
L 49.703125 33.890625 
L 66.40625 72.90625 
L 90.28125 72.90625 
L 90.28125 0 
L 72.515625 0 
L 72.515625 53.328125 
L 55.71875 14.015625 
L 43.796875 14.015625 
L 27 53.328125 
L 27 0 
L 9.1875 0 
z
" id="DejaVuSans-Bold-77"/>
       <path d="M 53.421875 13.28125 
L 24.03125 13.28125 
L 19.390625 0 
L 0.484375 0 
L 27.484375 72.90625 
L 49.90625 72.90625 
L 76.90625 0 
L 58.015625 0 
z
M 28.71875 26.8125 
L 48.6875 26.8125 
L 38.71875 55.8125 
z
" id="DejaVuSans-Bold-65"/>
       <path d="M 9.1875 72.90625 
L 59.90625 72.90625 
L 59.90625 58.6875 
L 27.984375 58.6875 
L 27.984375 45.125 
L 58.015625 45.125 
L 58.015625 30.90625 
L 27.984375 30.90625 
L 27.984375 14.203125 
L 60.984375 14.203125 
L 60.984375 0 
L 9.1875 0 
z
" id="DejaVuSans-Bold-69"/>
      </defs>
      <use xlink:href="#DejaVuSans-Bold-77"/>
      <use x="99.511719" xlink:href="#DejaVuSans-Bold-65"/>
      <use x="176.904297" xlink:href="#DejaVuSans-Bold-69"/>
     </g>
    </g>
    <g id="patch_5">
     <path d="M 10.8 104.4 
L 219.6 104.4 
L 219.6 57.6 
L 10.8 57.6 
z
" style="fill:#ffffff;stroke:#ffffff;stroke-linejoin:miter;"/>
    </g>
    <g id="text_4">
     <!-- [-45.4, -1.03] -->
     <g transform="translate(93.27 85.415)scale(0.16 -0.16)">
      <defs>
       <path d="M 8.59375 75.984375 
L 29.296875 75.984375 
L 29.296875 69 
L 17.578125 69 
L 17.578125 -6.203125 
L 29.296875 -6.203125 
L 29.296875 -13.1875 
L 8.59375 -13.1875 
z
" id="DejaVuSans-91"/>
       <path d="M 4.890625 31.390625 
L 31.203125 31.390625 
L 31.203125 23.390625 
L 4.890625 23.390625 
z
" id="DejaVuSans-45"/>
       <path d="M 37.796875 64.3125 
L 12.890625 25.390625 
L 37.796875 25.390625 
z
M 35.203125 72.90625 
L 47.609375 72.90625 
L 47.609375 25.390625 
L 58.015625 25.390625 
L 58.015625 17.1875 
L 47.609375 17.1875 
L 47.609375 0 
L 37.796875 0 
L 37.796875 17.1875 
L 4.890625 17.1875 
L 4.890625 26.703125 
z
" id="DejaVuSans-52"/>
       <path d="M 10.796875 72.90625 
L 49.515625 72.90625 
L 49.515625 64.59375 
L 19.828125 64.59375 
L 19.828125 46.734375 
Q 21.96875 47.46875 24.109375 47.828125 
Q 26.265625 48.1875 28.421875 48.1875 
Q 40.625 48.1875 47.75 41.5 
Q 54.890625 34.8125 54.890625 23.390625 
Q 54.890625 11.625 47.5625 5.09375 
Q 40.234375 -1.421875 26.90625 -1.421875 
Q 22.3125 -1.421875 17.546875 -0.640625 
Q 12.796875 0.140625 7.71875 1.703125 
L 7.71875 11.625 
Q 12.109375 9.234375 16.796875 8.0625 
Q 21.484375 6.890625 26.703125 6.890625 
Q 35.15625 6.890625 40.078125 11.328125 
Q 45.015625 15.765625 45.015625 23.390625 
Q 45.015625 31 40.078125 35.4375 
Q 35.15625 39.890625 26.703125 39.890625 
Q 22.75 39.890625 18.8125 39.015625 
Q 14.890625 38.140625 10.796875 36.28125 
z
" id="DejaVuSans-53"/>
       <path d="M 10.6875 12.40625 
L 21 12.40625 
L 21 0 
L 10.6875 0 
z
" id="DejaVuSans-46"/>
       <path d="M 11.71875 12.40625 
L 22.015625 12.40625 
L 22.015625 4 
L 14.015625 -11.625 
L 7.71875 -11.625 
L 11.71875 4 
z
" id="DejaVuSans-44"/>
       <path id="DejaVuSans-32"/>
       <path d="M 12.40625 8.296875 
L 28.515625 8.296875 
L 28.515625 63.921875 
L 10.984375 60.40625 
L 10.984375 69.390625 
L 28.421875 72.90625 
L 38.28125 72.90625 
L 38.28125 8.296875 
L 54.390625 8.296875 
L 54.390625 0 
L 12.40625 0 
z
" id="DejaVuSans-49"/>
       <path d="M 31.78125 66.40625 
Q 24.171875 66.40625 20.328125 58.90625 
Q 16.5 51.421875 16.5 36.375 
Q 16.5 21.390625 20.328125 13.890625 
Q 24.171875 6.390625 31.78125 6.390625 
Q 39.453125 6.390625 43.28125 13.890625 
Q 47.125 21.390625 47.125 36.375 
Q 47.125 51.421875 43.28125 58.90625 
Q 39.453125 66.40625 31.78125 66.40625 
z
M 31.78125 74.21875 
Q 44.046875 74.21875 50.515625 64.515625 
Q 56.984375 54.828125 56.984375 36.375 
Q 56.984375 17.96875 50.515625 8.265625 
Q 44.046875 -1.421875 31.78125 -1.421875 
Q 19.53125 -1.421875 13.0625 8.265625 
Q 6.59375 17.96875 6.59375 36.375 
Q 6.59375 54.828125 13.0625 64.515625 
Q 19.53125 74.21875 31.78125 74.21875 
z
" id="DejaVuSans-48"/>
       <path d="M 40.578125 39.3125 
Q 47.65625 37.796875 51.625 33 
Q 55.609375 28.21875 55.609375 21.1875 
Q 55.609375 10.40625 48.1875 4.484375 
Q 40.765625 -1.421875 27.09375 -1.421875 
Q 22.515625 -1.421875 17.65625 -0.515625 
Q 12.796875 0.390625 7.625 2.203125 
L 7.625 11.71875 
Q 11.71875 9.328125 16.59375 8.109375 
Q 21.484375 6.890625 26.8125 6.890625 
Q 36.078125 6.890625 40.9375 10.546875 
Q 45.796875 14.203125 45.796875 21.1875 
Q 45.796875 27.640625 41.28125 31.265625 
Q 36.765625 34.90625 28.71875 34.90625 
L 20.21875 34.90625 
L 20.21875 43.015625 
L 29.109375 43.015625 
Q 36.375 43.015625 40.234375 45.921875 
Q 44.09375 48.828125 44.09375 54.296875 
Q 44.09375 59.90625 40.109375 62.90625 
Q 36.140625 65.921875 28.71875 65.921875 
Q 24.65625 65.921875 20.015625 65.03125 
Q 15.375 64.15625 9.8125 62.3125 
L 9.8125 71.09375 
Q 15.4375 72.65625 20.34375 73.4375 
Q 25.25 74.21875 29.59375 74.21875 
Q 40.828125 74.21875 47.359375 69.109375 
Q 53.90625 64.015625 53.90625 55.328125 
Q 53.90625 49.265625 50.4375 45.09375 
Q 46.96875 40.921875 40.578125 39.3125 
z
" id="DejaVuSans-51"/>
       <path d="M 30.421875 75.984375 
L 30.421875 -13.1875 
L 9.71875 -13.1875 
L 9.71875 -6.203125 
L 21.390625 -6.203125 
L 21.390625 69 
L 9.71875 69 
L 9.71875 75.984375 
z
" id="DejaVuSans-93"/>
      </defs>
      <use xlink:href="#DejaVuSans-91"/>
      <use x="39.013672" xlink:href="#DejaVuSans-45"/>
      <use x="75.097656" xlink:href="#DejaVuSans-52"/>
      <use x="138.720703" xlink:href="#DejaVuSans-53"/>
      <use x="202.34375" xlink:href="#DejaVuSans-46"/>
      <use x="234.130859" xlink:href="#DejaVuSans-52"/>
      <use x="297.753906" xlink:href="#DejaVuSans-44"/>
      <use x="329.541016" xlink:href="#DejaVuSans-32"/>
      <use x="361.328125" xlink:href="#DejaVuSans-45"/>
      <use x="397.412109" xlink:href="#DejaVuSans-49"/>
      <use x="461.035156" xlink:href="#DejaVuSans-46"/>
      <use x="492.822266" xlink:href="#DejaVuSans-48"/>
      <use x="556.445312" xlink:href="#DejaVuSans-51"/>
      <use x="620.068359" xlink:href="#DejaVuSans-93"/>
     </g>
    </g>
    <g id="patch_6">
     <path d="M 219.6 104.4 
L 428.4 104.4 
L 428.4 57.6 
L 219.6 57.6 
z
" style="fill:#ffffff;stroke:#ffffff;stroke-linejoin:miter;"/>
    </g>
    <g id="text_5">
     <!-- [-43.  -2.] -->
     <g transform="translate(332.61 85.415)scale(0.16 -0.16)">
      <defs>
       <path d="M 19.1875 8.296875 
L 53.609375 8.296875 
L 53.609375 0 
L 7.328125 0 
L 7.328125 8.296875 
Q 12.9375 14.109375 22.625 23.890625 
Q 32.328125 33.6875 34.8125 36.53125 
Q 39.546875 41.84375 41.421875 45.53125 
Q 43.3125 49.21875 43.3125 52.78125 
Q 43.3125 58.59375 39.234375 62.25 
Q 35.15625 65.921875 28.609375 65.921875 
Q 23.96875 65.921875 18.8125 64.3125 
Q 13.671875 62.703125 7.8125 59.421875 
L 7.8125 69.390625 
Q 13.765625 71.78125 18.9375 73 
Q 24.125 74.21875 28.421875 74.21875 
Q 39.75 74.21875 46.484375 68.546875 
Q 53.21875 62.890625 53.21875 53.421875 
Q 53.21875 48.921875 51.53125 44.890625 
Q 49.859375 40.875 45.40625 35.40625 
Q 44.1875 33.984375 37.640625 27.21875 
Q 31.109375 20.453125 19.1875 8.296875 
z
" id="DejaVuSans-50"/>
      </defs>
      <use xlink:href="#DejaVuSans-91"/>
      <use x="39.013672" xlink:href="#DejaVuSans-45"/>
      <use x="75.097656" xlink:href="#DejaVuSans-52"/>
      <use x="138.720703" xlink:href="#DejaVuSans-51"/>
      <use x="202.34375" xlink:href="#DejaVuSans-46"/>
      <use x="234.130859" xlink:href="#DejaVuSans-32"/>
      <use x="265.917969" xlink:href="#DejaVuSans-32"/>
      <use x="297.705078" xlink:href="#DejaVuSans-45"/>
      <use x="333.789062" xlink:href="#DejaVuSans-50"/>
      <use x="397.412109" xlink:href="#DejaVuSans-46"/>
      <use x="429.199219" xlink:href="#DejaVuSans-93"/>
     </g>
    </g>
    <g id="patch_7">
     <path d="M 428.4 104.4 
L 637.2 104.4 
L 637.2 57.6 
L 428.4 57.6 
z
" style="fill:#ffffff;stroke:#ffffff;stroke-linejoin:miter;"/>
    </g>
    <g id="text_6">
     <!-- 3.370 -->
     <g transform="translate(570.515 85.415)scale(0.16 -0.16)">
      <defs>
       <path d="M 8.203125 72.90625 
L 55.078125 72.90625 
L 55.078125 68.703125 
L 28.609375 0 
L 18.3125 0 
L 43.21875 64.59375 
L 8.203125 64.59375 
z
" id="DejaVuSans-55"/>
      </defs>
      <use xlink:href="#DejaVuSans-51"/>
      <use x="63.623047" xlink:href="#DejaVuSans-46"/>
      <use x="95.410156" xlink:href="#DejaVuSans-51"/>
      <use x="159.033203" xlink:href="#DejaVuSans-55"/>
      <use x="222.65625" xlink:href="#DejaVuSans-48"/>
     </g>
    </g>
    <g id="patch_8">
     <path d="M 10.8 151.2 
L 219.6 151.2 
L 219.6 104.4 
L 10.8 104.4 
z
" style="fill:#f1f1f2;stroke:#ffffff;stroke-linejoin:miter;"/>
    </g>
    <g id="text_7">
     <!-- [13.03, -34.65] -->
     <g transform="translate(78.6825 132.215)scale(0.16 -0.16)">
      <defs>
       <path d="M 33.015625 40.375 
Q 26.375 40.375 22.484375 35.828125 
Q 18.609375 31.296875 18.609375 23.390625 
Q 18.609375 15.53125 22.484375 10.953125 
Q 26.375 6.390625 33.015625 6.390625 
Q 39.65625 6.390625 43.53125 10.953125 
Q 47.40625 15.53125 47.40625 23.390625 
Q 47.40625 31.296875 43.53125 35.828125 
Q 39.65625 40.375 33.015625 40.375 
z
M 52.59375 71.296875 
L 52.59375 62.3125 
Q 48.875 64.0625 45.09375 64.984375 
Q 41.3125 65.921875 37.59375 65.921875 
Q 27.828125 65.921875 22.671875 59.328125 
Q 17.53125 52.734375 16.796875 39.40625 
Q 19.671875 43.65625 24.015625 45.921875 
Q 28.375 48.1875 33.59375 48.1875 
Q 44.578125 48.1875 50.953125 41.515625 
Q 57.328125 34.859375 57.328125 23.390625 
Q 57.328125 12.15625 50.6875 5.359375 
Q 44.046875 -1.421875 33.015625 -1.421875 
Q 20.359375 -1.421875 13.671875 8.265625 
Q 6.984375 17.96875 6.984375 36.375 
Q 6.984375 53.65625 15.1875 63.9375 
Q 23.390625 74.21875 37.203125 74.21875 
Q 40.921875 74.21875 44.703125 73.484375 
Q 48.484375 72.75 52.59375 71.296875 
z
" id="DejaVuSans-54"/>
      </defs>
      <use xlink:href="#DejaVuSans-91"/>
      <use x="39.013672" xlink:href="#DejaVuSans-49"/>
      <use x="102.636719" xlink:href="#DejaVuSans-51"/>
      <use x="166.259766" xlink:href="#DejaVuSans-46"/>
      <use x="198.046875" xlink:href="#DejaVuSans-48"/>
      <use x="261.669922" xlink:href="#DejaVuSans-51"/>
      <use x="325.292969" xlink:href="#DejaVuSans-44"/>
      <use x="357.080078" xlink:href="#DejaVuSans-32"/>
      <use x="388.867188" xlink:href="#DejaVuSans-45"/>
      <use x="424.951172" xlink:href="#DejaVuSans-51"/>
      <use x="488.574219" xlink:href="#DejaVuSans-52"/>
      <use x="552.197266" xlink:href="#DejaVuSans-46"/>
      <use x="583.984375" xlink:href="#DejaVuSans-54"/>
      <use x="647.607422" xlink:href="#DejaVuSans-53"/>
      <use x="711.230469" xlink:href="#DejaVuSans-93"/>
     </g>
    </g>
    <g id="patch_9">
     <path d="M 219.6 151.2 
L 428.4 151.2 
L 428.4 104.4 
L 219.6 104.4 
z
" style="fill:#f1f1f2;stroke:#ffffff;stroke-linejoin:miter;"/>
    </g>
    <g id="text_8">
     <!-- [ 12. -35.] -->
     <g transform="translate(328.2025 132.215)scale(0.16 -0.16)">
      <use xlink:href="#DejaVuSans-91"/>
      <use x="39.013672" xlink:href="#DejaVuSans-32"/>
      <use x="70.800781" xlink:href="#DejaVuSans-49"/>
      <use x="134.423828" xlink:href="#DejaVuSans-50"/>
      <use x="198.046875" xlink:href="#DejaVuSans-46"/>
      <use x="229.833984" xlink:href="#DejaVuSans-32"/>
      <use x="261.621094" xlink:href="#DejaVuSans-45"/>
      <use x="297.705078" xlink:href="#DejaVuSans-51"/>
      <use x="361.328125" xlink:href="#DejaVuSans-53"/>
      <use x="424.951172" xlink:href="#DejaVuSans-46"/>
      <use x="456.738281" xlink:href="#DejaVuSans-93"/>
     </g>
    </g>
    <g id="patch_10">
     <path d="M 428.4 151.2 
L 637.2 151.2 
L 637.2 104.4 
L 428.4 104.4 
z
" style="fill:#f1f1f2;stroke:#ffffff;stroke-linejoin:miter;"/>
    </g>
    <g id="text_9">
     <!-- 1.380 -->
     <g transform="translate(570.515 132.215)scale(0.16 -0.16)">
      <defs>
       <path d="M 31.78125 34.625 
Q 24.75 34.625 20.71875 30.859375 
Q 16.703125 27.09375 16.703125 20.515625 
Q 16.703125 13.921875 20.71875 10.15625 
Q 24.75 6.390625 31.78125 6.390625 
Q 38.8125 6.390625 42.859375 10.171875 
Q 46.921875 13.96875 46.921875 20.515625 
Q 46.921875 27.09375 42.890625 30.859375 
Q 38.875 34.625 31.78125 34.625 
z
M 21.921875 38.8125 
Q 15.578125 40.375 12.03125 44.71875 
Q 8.5 49.078125 8.5 55.328125 
Q 8.5 64.0625 14.71875 69.140625 
Q 20.953125 74.21875 31.78125 74.21875 
Q 42.671875 74.21875 48.875 69.140625 
Q 55.078125 64.0625 55.078125 55.328125 
Q 55.078125 49.078125 51.53125 44.71875 
Q 48 40.375 41.703125 38.8125 
Q 48.828125 37.15625 52.796875 32.3125 
Q 56.78125 27.484375 56.78125 20.515625 
Q 56.78125 9.90625 50.3125 4.234375 
Q 43.84375 -1.421875 31.78125 -1.421875 
Q 19.734375 -1.421875 13.25 4.234375 
Q 6.78125 9.90625 6.78125 20.515625 
Q 6.78125 27.484375 10.78125 32.3125 
Q 14.796875 37.15625 21.921875 38.8125 
z
M 18.3125 54.390625 
Q 18.3125 48.734375 21.84375 45.5625 
Q 25.390625 42.390625 31.78125 42.390625 
Q 38.140625 42.390625 41.71875 45.5625 
Q 45.3125 48.734375 45.3125 54.390625 
Q 45.3125 60.0625 41.71875 63.234375 
Q 38.140625 66.40625 31.78125 66.40625 
Q 25.390625 66.40625 21.84375 63.234375 
Q 18.3125 60.0625 18.3125 54.390625 
z
" id="DejaVuSans-56"/>
      </defs>
      <use xlink:href="#DejaVuSans-49"/>
      <use x="63.623047" xlink:href="#DejaVuSans-46"/>
      <use x="95.410156" xlink:href="#DejaVuSans-51"/>
      <use x="159.033203" xlink:href="#DejaVuSans-56"/>
      <use x="222.65625" xlink:href="#DejaVuSans-48"/>
     </g>
    </g>
    <g id="patch_11">
     <path d="M 10.8 198 
L 219.6 198 
L 219.6 151.2 
L 10.8 151.2 
z
" style="fill:#ffffff;stroke:#ffffff;stroke-linejoin:miter;"/>
    </g>
    <g id="text_10">
     <!-- [50.16, -3.42] -->
     <g transform="translate(88.8625 179.015)scale(0.16 -0.16)">
      <use xlink:href="#DejaVuSans-91"/>
      <use x="39.013672" xlink:href="#DejaVuSans-53"/>
      <use x="102.636719" xlink:href="#DejaVuSans-48"/>
      <use x="166.259766" xlink:href="#DejaVuSans-46"/>
      <use x="198.046875" xlink:href="#DejaVuSans-49"/>
      <use x="261.669922" xlink:href="#DejaVuSans-54"/>
      <use x="325.292969" xlink:href="#DejaVuSans-44"/>
      <use x="357.080078" xlink:href="#DejaVuSans-32"/>
      <use x="388.867188" xlink:href="#DejaVuSans-45"/>
      <use x="424.951172" xlink:href="#DejaVuSans-51"/>
      <use x="488.574219" xlink:href="#DejaVuSans-46"/>
      <use x="520.361328" xlink:href="#DejaVuSans-52"/>
      <use x="583.984375" xlink:href="#DejaVuSans-50"/>
      <use x="647.607422" xlink:href="#DejaVuSans-93"/>
     </g>
    </g>
    <g id="patch_12">
     <path d="M 219.6 198 
L 428.4 198 
L 428.4 151.2 
L 219.6 151.2 
z
" style="fill:#ffffff;stroke:#ffffff;stroke-linejoin:miter;"/>
    </g>
    <g id="text_11">
     <!-- [72. 16.] -->
     <g transform="translate(339.06 179.015)scale(0.16 -0.16)">
      <use xlink:href="#DejaVuSans-91"/>
      <use x="39.013672" xlink:href="#DejaVuSans-55"/>
      <use x="102.636719" xlink:href="#DejaVuSans-50"/>
      <use x="166.259766" xlink:href="#DejaVuSans-46"/>
      <use x="198.046875" xlink:href="#DejaVuSans-32"/>
      <use x="229.833984" xlink:href="#DejaVuSans-49"/>
      <use x="293.457031" xlink:href="#DejaVuSans-54"/>
      <use x="357.080078" xlink:href="#DejaVuSans-46"/>
      <use x="388.867188" xlink:href="#DejaVuSans-93"/>
     </g>
    </g>
    <g id="patch_13">
     <path d="M 428.4 198 
L 637.2 198 
L 637.2 151.2 
L 428.4 151.2 
z
" style="fill:#ffffff;stroke:#ffffff;stroke-linejoin:miter;"/>
    </g>
    <g id="text_12">
     <!-- 41.260 -->
     <g transform="translate(560.335 179.015)scale(0.16 -0.16)">
      <use xlink:href="#DejaVuSans-52"/>
      <use x="63.623047" xlink:href="#DejaVuSans-49"/>
      <use x="127.246094" xlink:href="#DejaVuSans-46"/>
      <use x="159.033203" xlink:href="#DejaVuSans-50"/>
      <use x="222.65625" xlink:href="#DejaVuSans-54"/>
      <use x="286.279297" xlink:href="#DejaVuSans-48"/>
     </g>
    </g>
    <g id="patch_14">
     <path d="M 10.8 244.8 
L 219.6 244.8 
L 219.6 198 
L 10.8 198 
z
" style="fill:#f1f1f2;stroke:#ffffff;stroke-linejoin:miter;"/>
    </g>
    <g id="text_13">
     <!-- [-16.17, 65.76] -->
     <g transform="translate(78.6825 225.815)scale(0.16 -0.16)">
      <use xlink:href="#DejaVuSans-91"/>
      <use x="39.013672" xlink:href="#DejaVuSans-45"/>
      <use x="75.097656" xlink:href="#DejaVuSans-49"/>
      <use x="138.720703" xlink:href="#DejaVuSans-54"/>
      <use x="202.34375" xlink:href="#DejaVuSans-46"/>
      <use x="234.130859" xlink:href="#DejaVuSans-49"/>
      <use x="297.753906" xlink:href="#DejaVuSans-55"/>
      <use x="361.376953" xlink:href="#DejaVuSans-44"/>
      <use x="393.164062" xlink:href="#DejaVuSans-32"/>
      <use x="424.951172" xlink:href="#DejaVuSans-54"/>
      <use x="488.574219" xlink:href="#DejaVuSans-53"/>
      <use x="552.197266" xlink:href="#DejaVuSans-46"/>
      <use x="583.984375" xlink:href="#DejaVuSans-55"/>
      <use x="647.607422" xlink:href="#DejaVuSans-54"/>
      <use x="711.230469" xlink:href="#DejaVuSans-93"/>
     </g>
    </g>
    <g id="patch_15">
     <path d="M 219.6 244.8 
L 428.4 244.8 
L 428.4 198 
L 219.6 198 
z
" style="fill:#f1f1f2;stroke:#ffffff;stroke-linejoin:miter;"/>
    </g>
    <g id="text_14">
     <!-- [-17.  64.] -->
     <g transform="translate(328.2025 225.815)scale(0.16 -0.16)">
      <use xlink:href="#DejaVuSans-91"/>
      <use x="39.013672" xlink:href="#DejaVuSans-45"/>
      <use x="75.097656" xlink:href="#DejaVuSans-49"/>
      <use x="138.720703" xlink:href="#DejaVuSans-55"/>
      <use x="202.34375" xlink:href="#DejaVuSans-46"/>
      <use x="234.130859" xlink:href="#DejaVuSans-32"/>
      <use x="265.917969" xlink:href="#DejaVuSans-32"/>
      <use x="297.705078" xlink:href="#DejaVuSans-54"/>
      <use x="361.328125" xlink:href="#DejaVuSans-52"/>
      <use x="424.951172" xlink:href="#DejaVuSans-46"/>
      <use x="456.738281" xlink:href="#DejaVuSans-93"/>
     </g>
    </g>
    <g id="patch_16">
     <path d="M 428.4 244.8 
L 637.2 244.8 
L 637.2 198 
L 428.4 198 
z
" style="fill:#f1f1f2;stroke:#ffffff;stroke-linejoin:miter;"/>
    </g>
    <g id="text_15">
     <!-- 2.590 -->
     <g transform="translate(570.515 225.815)scale(0.16 -0.16)">
      <defs>
       <path d="M 10.984375 1.515625 
L 10.984375 10.5 
Q 14.703125 8.734375 18.5 7.8125 
Q 22.3125 6.890625 25.984375 6.890625 
Q 35.75 6.890625 40.890625 13.453125 
Q 46.046875 20.015625 46.78125 33.40625 
Q 43.953125 29.203125 39.59375 26.953125 
Q 35.25 24.703125 29.984375 24.703125 
Q 19.046875 24.703125 12.671875 31.3125 
Q 6.296875 37.9375 6.296875 49.421875 
Q 6.296875 60.640625 12.9375 67.421875 
Q 19.578125 74.21875 30.609375 74.21875 
Q 43.265625 74.21875 49.921875 64.515625 
Q 56.59375 54.828125 56.59375 36.375 
Q 56.59375 19.140625 48.40625 8.859375 
Q 40.234375 -1.421875 26.421875 -1.421875 
Q 22.703125 -1.421875 18.890625 -0.6875 
Q 15.09375 0.046875 10.984375 1.515625 
z
M 30.609375 32.421875 
Q 37.25 32.421875 41.125 36.953125 
Q 45.015625 41.5 45.015625 49.421875 
Q 45.015625 57.28125 41.125 61.84375 
Q 37.25 66.40625 30.609375 66.40625 
Q 23.96875 66.40625 20.09375 61.84375 
Q 16.21875 57.28125 16.21875 49.421875 
Q 16.21875 41.5 20.09375 36.953125 
Q 23.96875 32.421875 30.609375 32.421875 
z
" id="DejaVuSans-57"/>
      </defs>
      <use xlink:href="#DejaVuSans-50"/>
      <use x="63.623047" xlink:href="#DejaVuSans-46"/>
      <use x="95.410156" xlink:href="#DejaVuSans-53"/>
      <use x="159.033203" xlink:href="#DejaVuSans-57"/>
      <use x="222.65625" xlink:href="#DejaVuSans-48"/>
     </g>
    </g>
    <g id="patch_17">
     <path d="M 10.8 291.6 
L 219.6 291.6 
L 219.6 244.8 
L 10.8 244.8 
z
" style="fill:#ffffff;stroke:#ffffff;stroke-linejoin:miter;"/>
    </g>
    <g id="text_16">
     <!-- [-25.14, 41.01] -->
     <g transform="translate(78.6825 272.615)scale(0.16 -0.16)">
      <use xlink:href="#DejaVuSans-91"/>
      <use x="39.013672" xlink:href="#DejaVuSans-45"/>
      <use x="75.097656" xlink:href="#DejaVuSans-50"/>
      <use x="138.720703" xlink:href="#DejaVuSans-53"/>
      <use x="202.34375" xlink:href="#DejaVuSans-46"/>
      <use x="234.130859" xlink:href="#DejaVuSans-49"/>
      <use x="297.753906" xlink:href="#DejaVuSans-52"/>
      <use x="361.376953" xlink:href="#DejaVuSans-44"/>
      <use x="393.164062" xlink:href="#DejaVuSans-32"/>
      <use x="424.951172" xlink:href="#DejaVuSans-52"/>
      <use x="488.574219" xlink:href="#DejaVuSans-49"/>
      <use x="552.197266" xlink:href="#DejaVuSans-46"/>
      <use x="583.984375" xlink:href="#DejaVuSans-48"/>
      <use x="647.607422" xlink:href="#DejaVuSans-49"/>
      <use x="711.230469" xlink:href="#DejaVuSans-93"/>
     </g>
    </g>
    <g id="patch_18">
     <path d="M 219.6 291.6 
L 428.4 291.6 
L 428.4 244.8 
L 219.6 244.8 
z
" style="fill:#ffffff;stroke:#ffffff;stroke-linejoin:miter;"/>
    </g>
    <g id="text_17">
     <!-- [-26.  41.] -->
     <g transform="translate(328.2025 272.615)scale(0.16 -0.16)">
      <use xlink:href="#DejaVuSans-91"/>
      <use x="39.013672" xlink:href="#DejaVuSans-45"/>
      <use x="75.097656" xlink:href="#DejaVuSans-50"/>
      <use x="138.720703" xlink:href="#DejaVuSans-54"/>
      <use x="202.34375" xlink:href="#DejaVuSans-46"/>
      <use x="234.130859" xlink:href="#DejaVuSans-32"/>
      <use x="265.917969" xlink:href="#DejaVuSans-32"/>
      <use x="297.705078" xlink:href="#DejaVuSans-52"/>
      <use x="361.328125" xlink:href="#DejaVuSans-49"/>
      <use x="424.951172" xlink:href="#DejaVuSans-46"/>
      <use x="456.738281" xlink:href="#DejaVuSans-93"/>
     </g>
    </g>
    <g id="patch_19">
     <path d="M 428.4 291.6 
L 637.2 291.6 
L 637.2 244.8 
L 428.4 244.8 
z
" style="fill:#ffffff;stroke:#ffffff;stroke-linejoin:miter;"/>
    </g>
    <g id="text_18">
     <!-- 0.870 -->
     <g transform="translate(570.515 272.615)scale(0.16 -0.16)">
      <use xlink:href="#DejaVuSans-48"/>
      <use x="63.623047" xlink:href="#DejaVuSans-46"/>
      <use x="95.410156" xlink:href="#DejaVuSans-56"/>
      <use x="159.033203" xlink:href="#DejaVuSans-55"/>
      <use x="222.65625" xlink:href="#DejaVuSans-48"/>
     </g>
    </g>
   </g>
  </g>
 </g>
</svg>
