<?xml version="1.0" encoding="utf-8" standalone="no"?>
<!DOCTYPE svg PUBLIC "-//W3C//DTD SVG 1.1//EN"
  "http://www.w3.org/Graphics/SVG/1.1/DTD/svg11.dtd">
<!-- Created with matplotlib (https://matplotlib.org/) -->
<svg height="554.4pt" version="1.1" viewBox="0 0 1080 554.4" width="1080pt" xmlns="http://www.w3.org/2000/svg" xmlns:xlink="http://www.w3.org/1999/xlink">
 <defs>
  <style type="text/css">
*{stroke-linecap:butt;stroke-linejoin:round;}
  </style>
 </defs>
 <g id="figure_1">
  <g id="patch_1">
   <path d="M 0 554.4 
L 1080 554.4 
L 1080 0 
L 0 0 
z
" style="fill:#ffffff;"/>
  </g>
  <g id="axes_1">
   <g id="table_1">
    <g id="patch_2">
     <path d="M 10.8 59.236364 
L 222.48 59.236364 
L 222.48 10.8 
L 10.8 10.8 
z
" style="fill:#40466e;stroke:#ffffff;stroke-linejoin:miter;"/>
    </g>
    <g id="text_1">
     <!-- Input -->
     <defs>
      <path d="M 9.1875 72.90625 
L 27.984375 72.90625 
L 27.984375 0 
L 9.1875 0 
z
" id="DejaVuSans-Bold-73"/>
      <path d="M 63.375 33.296875 
L 63.375 0 
L 45.796875 0 
L 45.796875 5.421875 
L 45.796875 25.484375 
Q 45.796875 32.5625 45.484375 35.25 
Q 45.171875 37.9375 44.390625 39.203125 
Q 43.359375 40.921875 41.59375 41.875 
Q 39.84375 42.828125 37.59375 42.828125 
Q 32.125 42.828125 29 38.59375 
Q 25.875 34.375 25.875 26.90625 
L 25.875 0 
L 8.40625 0 
L 8.40625 54.6875 
L 25.875 54.6875 
L 25.875 46.6875 
Q 29.828125 51.46875 34.265625 53.734375 
Q 38.71875 56 44.09375 56 
Q 53.5625 56 58.46875 50.1875 
Q 63.375 44.390625 63.375 33.296875 
z
" id="DejaVuSans-Bold-110"/>
      <path d="M 25.875 7.90625 
L 25.875 -20.796875 
L 8.40625 -20.796875 
L 8.40625 54.6875 
L 25.875 54.6875 
L 25.875 46.6875 
Q 29.5 51.46875 33.890625 53.734375 
Q 38.28125 56 44 56 
Q 54.109375 56 60.59375 47.96875 
Q 67.09375 39.9375 67.09375 27.296875 
Q 67.09375 14.65625 60.59375 6.609375 
Q 54.109375 -1.421875 44 -1.421875 
Q 38.28125 -1.421875 33.890625 0.84375 
Q 29.5 3.125 25.875 7.90625 
z
M 37.5 43.3125 
Q 31.890625 43.3125 28.875 39.1875 
Q 25.875 35.0625 25.875 27.296875 
Q 25.875 19.53125 28.875 15.40625 
Q 31.890625 11.28125 37.5 11.28125 
Q 43.109375 11.28125 46.0625 15.375 
Q 49.03125 19.484375 49.03125 27.296875 
Q 49.03125 35.109375 46.0625 39.203125 
Q 43.109375 43.3125 37.5 43.3125 
z
" id="DejaVuSans-Bold-112"/>
      <path d="M 7.8125 21.296875 
L 7.8125 54.6875 
L 25.390625 54.6875 
L 25.390625 49.21875 
Q 25.390625 44.78125 25.34375 38.0625 
Q 25.296875 31.34375 25.296875 29.109375 
Q 25.296875 22.515625 25.640625 19.609375 
Q 25.984375 16.703125 26.8125 15.375 
Q 27.875 13.671875 29.609375 12.734375 
Q 31.34375 11.8125 33.59375 11.8125 
Q 39.0625 11.8125 42.1875 16.015625 
Q 45.3125 20.21875 45.3125 27.6875 
L 45.3125 54.6875 
L 62.796875 54.6875 
L 62.796875 0 
L 45.3125 0 
L 45.3125 7.90625 
Q 41.359375 3.125 36.9375 0.84375 
Q 32.515625 -1.421875 27.203125 -1.421875 
Q 17.71875 -1.421875 12.765625 4.390625 
Q 7.8125 10.203125 7.8125 21.296875 
z
" id="DejaVuSans-Bold-117"/>
      <path d="M 27.484375 70.21875 
L 27.484375 54.6875 
L 45.515625 54.6875 
L 45.515625 42.1875 
L 27.484375 42.1875 
L 27.484375 19 
Q 27.484375 15.1875 29 13.84375 
Q 30.515625 12.5 35.015625 12.5 
L 44 12.5 
L 44 0 
L 29 0 
Q 18.65625 0 14.328125 4.3125 
Q 10.015625 8.640625 10.015625 19 
L 10.015625 42.1875 
L 1.3125 42.1875 
L 1.3125 54.6875 
L 10.015625 54.6875 
L 10.015625 70.21875 
z
" id="DejaVuSans-Bold-116"/>
     </defs>
     <g style="fill:#ffffff;" transform="translate(92.72375 39.433182)scale(0.16 -0.16)">
      <use xlink:href="#DejaVuSans-Bold-73"/>
      <use x="37.207031" xlink:href="#DejaVuSans-Bold-110"/>
      <use x="108.398438" xlink:href="#DejaVuSans-Bold-112"/>
      <use x="179.980469" xlink:href="#DejaVuSans-Bold-117"/>
      <use x="251.171875" xlink:href="#DejaVuSans-Bold-116"/>
     </g>
    </g>
    <g id="patch_3">
     <path d="M 222.48 59.236364 
L 434.16 59.236364 
L 434.16 10.8 
L 222.48 10.8 
z
" style="fill:#40466e;stroke:#ffffff;stroke-linejoin:miter;"/>
    </g>
    <g id="text_2">
     <!-- Glimpse 1 -->
     <defs>
      <path d="M 74.703125 5.421875 
Q 67.671875 2 60.109375 0.28125 
Q 52.546875 -1.421875 44.484375 -1.421875 
Q 26.265625 -1.421875 15.625 8.765625 
Q 4.984375 18.953125 4.984375 36.375 
Q 4.984375 54 15.8125 64.109375 
Q 26.65625 74.21875 45.515625 74.21875 
Q 52.78125 74.21875 59.4375 72.84375 
Q 66.109375 71.484375 72.015625 68.796875 
L 72.015625 53.71875 
Q 65.921875 57.171875 59.890625 58.875 
Q 53.859375 60.59375 47.796875 60.59375 
Q 36.578125 60.59375 30.5 54.3125 
Q 24.421875 48.046875 24.421875 36.375 
Q 24.421875 24.8125 30.28125 18.5 
Q 36.140625 12.203125 46.921875 12.203125 
Q 49.859375 12.203125 52.375 12.5625 
Q 54.890625 12.9375 56.890625 13.71875 
L 56.890625 27.875 
L 45.40625 27.875 
L 45.40625 40.484375 
L 74.703125 40.484375 
z
" id="DejaVuSans-Bold-71"/>
      <path d="M 8.40625 75.984375 
L 25.875 75.984375 
L 25.875 0 
L 8.40625 0 
z
" id="DejaVuSans-Bold-108"/>
      <path d="M 8.40625 54.6875 
L 25.875 54.6875 
L 25.875 0 
L 8.40625 0 
z
M 8.40625 75.984375 
L 25.875 75.984375 
L 25.875 61.71875 
L 8.40625 61.71875 
z
" id="DejaVuSans-Bold-105"/>
      <path d="M 59.078125 45.609375 
Q 62.40625 50.6875 66.96875 53.34375 
Q 71.53125 56 77 56 
Q 86.421875 56 91.359375 50.1875 
Q 96.296875 44.390625 96.296875 33.296875 
L 96.296875 0 
L 78.71875 0 
L 78.71875 28.515625 
Q 78.765625 29.15625 78.78125 29.828125 
Q 78.8125 30.515625 78.8125 31.78125 
Q 78.8125 37.59375 77.09375 40.203125 
Q 75.390625 42.828125 71.578125 42.828125 
Q 66.609375 42.828125 63.890625 38.71875 
Q 61.1875 34.625 61.078125 26.859375 
L 61.078125 0 
L 43.5 0 
L 43.5 28.515625 
Q 43.5 37.59375 41.9375 40.203125 
Q 40.375 42.828125 36.375 42.828125 
Q 31.34375 42.828125 28.609375 38.703125 
Q 25.875 34.578125 25.875 26.90625 
L 25.875 0 
L 8.296875 0 
L 8.296875 54.6875 
L 25.875 54.6875 
L 25.875 46.6875 
Q 29.109375 51.3125 33.28125 53.65625 
Q 37.453125 56 42.484375 56 
Q 48.140625 56 52.484375 53.265625 
Q 56.84375 50.53125 59.078125 45.609375 
z
" id="DejaVuSans-Bold-109"/>
      <path d="M 51.125 52.984375 
L 51.125 39.703125 
Q 45.515625 42.046875 40.28125 43.21875 
Q 35.0625 44.390625 30.421875 44.390625 
Q 25.4375 44.390625 23.015625 43.140625 
Q 20.609375 41.890625 20.609375 39.3125 
Q 20.609375 37.203125 22.4375 36.078125 
Q 24.265625 34.96875 29 34.421875 
L 32.078125 33.984375 
Q 45.515625 32.28125 50.140625 28.375 
Q 54.78125 24.46875 54.78125 16.109375 
Q 54.78125 7.375 48.328125 2.96875 
Q 41.890625 -1.421875 29.109375 -1.421875 
Q 23.6875 -1.421875 17.890625 -0.5625 
Q 12.109375 0.296875 6 2 
L 6 15.28125 
Q 11.234375 12.75 16.71875 11.46875 
Q 22.21875 10.203125 27.875 10.203125 
Q 33.015625 10.203125 35.59375 11.609375 
Q 38.1875 13.03125 38.1875 15.828125 
Q 38.1875 18.171875 36.40625 19.3125 
Q 34.625 20.453125 29.296875 21.09375 
L 26.21875 21.484375 
Q 14.546875 22.953125 9.859375 26.90625 
Q 5.171875 30.859375 5.171875 38.921875 
Q 5.171875 47.609375 11.125 51.796875 
Q 17.09375 56 29.390625 56 
Q 34.234375 56 39.546875 55.265625 
Q 44.875 54.546875 51.125 52.984375 
z
" id="DejaVuSans-Bold-115"/>
      <path d="M 62.984375 27.484375 
L 62.984375 22.515625 
L 22.125 22.515625 
Q 22.75 16.359375 26.5625 13.28125 
Q 30.375 10.203125 37.203125 10.203125 
Q 42.71875 10.203125 48.5 11.84375 
Q 54.296875 13.484375 60.40625 16.796875 
L 60.40625 3.328125 
Q 54.203125 0.984375 48 -0.21875 
Q 41.796875 -1.421875 35.59375 -1.421875 
Q 20.75 -1.421875 12.515625 6.125 
Q 4.296875 13.671875 4.296875 27.296875 
Q 4.296875 40.671875 12.375 48.328125 
Q 20.453125 56 34.625 56 
Q 47.515625 56 55.25 48.234375 
Q 62.984375 40.484375 62.984375 27.484375 
z
M 45.015625 33.296875 
Q 45.015625 38.28125 42.109375 41.328125 
Q 39.203125 44.390625 34.515625 44.390625 
Q 29.4375 44.390625 26.265625 41.53125 
Q 23.09375 38.671875 22.3125 33.296875 
z
" id="DejaVuSans-Bold-101"/>
      <path id="DejaVuSans-Bold-32"/>
      <path d="M 11.71875 12.984375 
L 28.328125 12.984375 
L 28.328125 60.109375 
L 11.28125 56.59375 
L 11.28125 69.390625 
L 28.21875 72.90625 
L 46.09375 72.90625 
L 46.09375 12.984375 
L 62.703125 12.984375 
L 62.703125 0 
L 11.71875 0 
z
" id="DejaVuSans-Bold-49"/>
     </defs>
     <g style="fill:#ffffff;" transform="translate(283.6675 39.433182)scale(0.16 -0.16)">
      <use xlink:href="#DejaVuSans-Bold-71"/>
      <use x="82.080078" xlink:href="#DejaVuSans-Bold-108"/>
      <use x="116.357422" xlink:href="#DejaVuSans-Bold-105"/>
      <use x="150.634766" xlink:href="#DejaVuSans-Bold-109"/>
      <use x="254.833984" xlink:href="#DejaVuSans-Bold-112"/>
      <use x="326.416016" xlink:href="#DejaVuSans-Bold-115"/>
      <use x="385.9375" xlink:href="#DejaVuSans-Bold-101"/>
      <use x="453.759766" xlink:href="#DejaVuSans-Bold-32"/>
      <use x="488.574219" xlink:href="#DejaVuSans-Bold-49"/>
     </g>
    </g>
    <g id="patch_4">
     <path d="M 434.16 59.236364 
L 645.84 59.236364 
L 645.84 10.8 
L 434.16 10.8 
z
" style="fill:#40466e;stroke:#ffffff;stroke-linejoin:miter;"/>
    </g>
    <g id="text_3">
     <!-- Glimpse 2 -->
     <defs>
      <path d="M 28.8125 13.8125 
L 60.890625 13.8125 
L 60.890625 0 
L 7.90625 0 
L 7.90625 13.8125 
L 34.515625 37.3125 
Q 38.09375 40.53125 39.796875 43.609375 
Q 41.5 46.6875 41.5 50 
Q 41.5 55.125 38.0625 58.25 
Q 34.625 61.375 28.90625 61.375 
Q 24.515625 61.375 19.28125 59.5 
Q 14.0625 57.625 8.109375 53.90625 
L 8.109375 69.921875 
Q 14.453125 72.015625 20.65625 73.109375 
Q 26.859375 74.21875 32.8125 74.21875 
Q 45.90625 74.21875 53.15625 68.453125 
Q 60.40625 62.703125 60.40625 52.390625 
Q 60.40625 46.4375 57.328125 41.28125 
Q 54.25 36.140625 44.390625 27.484375 
z
" id="DejaVuSans-Bold-50"/>
     </defs>
     <g style="fill:#ffffff;" transform="translate(495.3475 39.433182)scale(0.16 -0.16)">
      <use xlink:href="#DejaVuSans-Bold-71"/>
      <use x="82.080078" xlink:href="#DejaVuSans-Bold-108"/>
      <use x="116.357422" xlink:href="#DejaVuSans-Bold-105"/>
      <use x="150.634766" xlink:href="#DejaVuSans-Bold-109"/>
      <use x="254.833984" xlink:href="#DejaVuSans-Bold-112"/>
      <use x="326.416016" xlink:href="#DejaVuSans-Bold-115"/>
      <use x="385.9375" xlink:href="#DejaVuSans-Bold-101"/>
      <use x="453.759766" xlink:href="#DejaVuSans-Bold-32"/>
      <use x="488.574219" xlink:href="#DejaVuSans-Bold-50"/>
     </g>
    </g>
    <g id="patch_5">
     <path d="M 645.84 59.236364 
L 857.52 59.236364 
L 857.52 10.8 
L 645.84 10.8 
z
" style="fill:#40466e;stroke:#ffffff;stroke-linejoin:miter;"/>
    </g>
    <g id="text_4">
     <!-- Glimpse 3 -->
     <defs>
      <path d="M 46.578125 39.3125 
Q 53.953125 37.40625 57.78125 32.6875 
Q 61.625 27.984375 61.625 20.703125 
Q 61.625 9.859375 53.3125 4.21875 
Q 45.015625 -1.421875 29.109375 -1.421875 
Q 23.484375 -1.421875 17.84375 -0.515625 
Q 12.203125 0.390625 6.6875 2.203125 
L 6.6875 16.703125 
Q 11.96875 14.0625 17.15625 12.71875 
Q 22.359375 11.375 27.390625 11.375 
Q 34.859375 11.375 38.84375 13.953125 
Q 42.828125 16.546875 42.828125 21.390625 
Q 42.828125 26.375 38.75 28.9375 
Q 34.671875 31.5 26.703125 31.5 
L 19.1875 31.5 
L 19.1875 43.609375 
L 27.09375 43.609375 
Q 34.1875 43.609375 37.640625 45.828125 
Q 41.109375 48.046875 41.109375 52.59375 
Q 41.109375 56.78125 37.734375 59.078125 
Q 34.375 61.375 28.21875 61.375 
Q 23.6875 61.375 19.046875 60.34375 
Q 14.40625 59.328125 9.8125 57.328125 
L 9.8125 71.09375 
Q 15.375 72.65625 20.84375 73.4375 
Q 26.3125 74.21875 31.59375 74.21875 
Q 45.796875 74.21875 52.84375 69.546875 
Q 59.90625 64.890625 59.90625 55.515625 
Q 59.90625 49.125 56.53125 45.046875 
Q 53.171875 40.96875 46.578125 39.3125 
z
" id="DejaVuSans-Bold-51"/>
     </defs>
     <g style="fill:#ffffff;" transform="translate(707.0275 39.433182)scale(0.16 -0.16)">
      <use xlink:href="#DejaVuSans-Bold-71"/>
      <use x="82.080078" xlink:href="#DejaVuSans-Bold-108"/>
      <use x="116.357422" xlink:href="#DejaVuSans-Bold-105"/>
      <use x="150.634766" xlink:href="#DejaVuSans-Bold-109"/>
      <use x="254.833984" xlink:href="#DejaVuSans-Bold-112"/>
      <use x="326.416016" xlink:href="#DejaVuSans-Bold-115"/>
      <use x="385.9375" xlink:href="#DejaVuSans-Bold-101"/>
      <use x="453.759766" xlink:href="#DejaVuSans-Bold-32"/>
      <use x="488.574219" xlink:href="#DejaVuSans-Bold-51"/>
     </g>
    </g>
    <g id="patch_6">
     <path d="M 857.52 59.236364 
L 1069.2 59.236364 
L 1069.2 10.8 
L 857.52 10.8 
z
" style="fill:#40466e;stroke:#ffffff;stroke-linejoin:miter;"/>
    </g>
    <g id="text_5">
     <!-- Glimpse 4 -->
     <defs>
      <path d="M 36.8125 57.421875 
L 16.21875 26.90625 
L 36.8125 26.90625 
z
M 33.6875 72.90625 
L 54.59375 72.90625 
L 54.59375 26.90625 
L 64.984375 26.90625 
L 64.984375 13.28125 
L 54.59375 13.28125 
L 54.59375 0 
L 36.8125 0 
L 36.8125 13.28125 
L 4.5 13.28125 
L 4.5 29.390625 
z
" id="DejaVuSans-Bold-52"/>
     </defs>
     <g style="fill:#ffffff;" transform="translate(918.7075 39.433182)scale(0.16 -0.16)">
      <use xlink:href="#DejaVuSans-Bold-71"/>
      <use x="82.080078" xlink:href="#DejaVuSans-Bold-108"/>
      <use x="116.357422" xlink:href="#DejaVuSans-Bold-105"/>
      <use x="150.634766" xlink:href="#DejaVuSans-Bold-109"/>
      <use x="254.833984" xlink:href="#DejaVuSans-Bold-112"/>
      <use x="326.416016" xlink:href="#DejaVuSans-Bold-115"/>
      <use x="385.9375" xlink:href="#DejaVuSans-Bold-101"/>
      <use x="453.759766" xlink:href="#DejaVuSans-Bold-32"/>
      <use x="488.574219" xlink:href="#DejaVuSans-Bold-52"/>
     </g>
    </g>
    <g id="patch_7">
     <path d="M 10.8 107.672727 
L 222.48 107.672727 
L 222.48 59.236364 
L 10.8 59.236364 
z
" style="fill:#ffffff;stroke:#ffffff;stroke-linejoin:miter;"/>
    </g>
    <g id="text_6">
     <!-- 0 -->
     <defs>
      <path d="M 31.78125 66.40625 
Q 24.171875 66.40625 20.328125 58.90625 
Q 16.5 51.421875 16.5 36.375 
Q 16.5 21.390625 20.328125 13.890625 
Q 24.171875 6.390625 31.78125 6.390625 
Q 39.453125 6.390625 43.28125 13.890625 
Q 47.125 21.390625 47.125 36.375 
Q 47.125 51.421875 43.28125 58.90625 
Q 39.453125 66.40625 31.78125 66.40625 
z
M 31.78125 74.21875 
Q 44.046875 74.21875 50.515625 64.515625 
Q 56.984375 54.828125 56.984375 36.375 
Q 56.984375 17.96875 50.515625 8.265625 
Q 44.046875 -1.421875 31.78125 -1.421875 
Q 19.53125 -1.421875 13.0625 8.265625 
Q 6.59375 17.96875 6.59375 36.375 
Q 6.59375 54.828125 13.0625 64.515625 
Q 19.53125 74.21875 31.78125 74.21875 
z
" id="DejaVuSans-48"/>
     </defs>
     <g transform="translate(191.132 87.869545)scale(0.16 -0.16)">
      <use xlink:href="#DejaVuSans-48"/>
     </g>
    </g>
    <g id="patch_8">
     <path d="M 222.48 107.672727 
L 434.16 107.672727 
L 434.16 59.236364 
L 222.48 59.236364 
z
" style="fill:#ffffff;stroke:#ffffff;stroke-linejoin:miter;"/>
    </g>
    <g id="text_7">
     <!-- False/False -->
     <defs>
      <path d="M 9.8125 72.90625 
L 51.703125 72.90625 
L 51.703125 64.59375 
L 19.671875 64.59375 
L 19.671875 43.109375 
L 48.578125 43.109375 
L 48.578125 34.8125 
L 19.671875 34.8125 
L 19.671875 0 
L 9.8125 0 
z
" id="DejaVuSans-70"/>
      <path d="M 34.28125 27.484375 
Q 23.390625 27.484375 19.1875 25 
Q 14.984375 22.515625 14.984375 16.5 
Q 14.984375 11.71875 18.140625 8.90625 
Q 21.296875 6.109375 26.703125 6.109375 
Q 34.1875 6.109375 38.703125 11.40625 
Q 43.21875 16.703125 43.21875 25.484375 
L 43.21875 27.484375 
z
M 52.203125 31.203125 
L 52.203125 0 
L 43.21875 0 
L 43.21875 8.296875 
Q 40.140625 3.328125 35.546875 0.953125 
Q 30.953125 -1.421875 24.3125 -1.421875 
Q 15.921875 -1.421875 10.953125 3.296875 
Q 6 8.015625 6 15.921875 
Q 6 25.140625 12.171875 29.828125 
Q 18.359375 34.515625 30.609375 34.515625 
L 43.21875 34.515625 
L 43.21875 35.40625 
Q 43.21875 41.609375 39.140625 45 
Q 35.0625 48.390625 27.6875 48.390625 
Q 23 48.390625 18.546875 47.265625 
Q 14.109375 46.140625 10.015625 43.890625 
L 10.015625 52.203125 
Q 14.9375 54.109375 19.578125 55.046875 
Q 24.21875 56 28.609375 56 
Q 40.484375 56 46.34375 49.84375 
Q 52.203125 43.703125 52.203125 31.203125 
z
" id="DejaVuSans-97"/>
      <path d="M 9.421875 75.984375 
L 18.40625 75.984375 
L 18.40625 0 
L 9.421875 0 
z
" id="DejaVuSans-108"/>
      <path d="M 44.28125 53.078125 
L 44.28125 44.578125 
Q 40.484375 46.53125 36.375 47.5 
Q 32.28125 48.484375 27.875 48.484375 
Q 21.1875 48.484375 17.84375 46.4375 
Q 14.5 44.390625 14.5 40.28125 
Q 14.5 37.15625 16.890625 35.375 
Q 19.28125 33.59375 26.515625 31.984375 
L 29.59375 31.296875 
Q 39.15625 29.25 43.1875 25.515625 
Q 47.21875 21.78125 47.21875 15.09375 
Q 47.21875 7.46875 41.1875 3.015625 
Q 35.15625 -1.421875 24.609375 -1.421875 
Q 20.21875 -1.421875 15.453125 -0.5625 
Q 10.6875 0.296875 5.421875 2 
L 5.421875 11.28125 
Q 10.40625 8.6875 15.234375 7.390625 
Q 20.0625 6.109375 24.8125 6.109375 
Q 31.15625 6.109375 34.5625 8.28125 
Q 37.984375 10.453125 37.984375 14.40625 
Q 37.984375 18.0625 35.515625 20.015625 
Q 33.0625 21.96875 24.703125 23.78125 
L 21.578125 24.515625 
Q 13.234375 26.265625 9.515625 29.90625 
Q 5.8125 33.546875 5.8125 39.890625 
Q 5.8125 47.609375 11.28125 51.796875 
Q 16.75 56 26.8125 56 
Q 31.78125 56 36.171875 55.265625 
Q 40.578125 54.546875 44.28125 53.078125 
z
" id="DejaVuSans-115"/>
      <path d="M 56.203125 29.59375 
L 56.203125 25.203125 
L 14.890625 25.203125 
Q 15.484375 15.921875 20.484375 11.0625 
Q 25.484375 6.203125 34.421875 6.203125 
Q 39.59375 6.203125 44.453125 7.46875 
Q 49.3125 8.734375 54.109375 11.28125 
L 54.109375 2.78125 
Q 49.265625 0.734375 44.1875 -0.34375 
Q 39.109375 -1.421875 33.890625 -1.421875 
Q 20.796875 -1.421875 13.15625 6.1875 
Q 5.515625 13.8125 5.515625 26.8125 
Q 5.515625 40.234375 12.765625 48.109375 
Q 20.015625 56 32.328125 56 
Q 43.359375 56 49.78125 48.890625 
Q 56.203125 41.796875 56.203125 29.59375 
z
M 47.21875 32.234375 
Q 47.125 39.59375 43.09375 43.984375 
Q 39.0625 48.390625 32.421875 48.390625 
Q 24.90625 48.390625 20.390625 44.140625 
Q 15.875 39.890625 15.1875 32.171875 
z
" id="DejaVuSans-101"/>
      <path d="M 25.390625 72.90625 
L 33.6875 72.90625 
L 8.296875 -9.28125 
L 0 -9.28125 
z
" id="DejaVuSans-47"/>
     </defs>
     <g transform="translate(324.382 87.869545)scale(0.16 -0.16)">
      <use xlink:href="#DejaVuSans-70"/>
      <use x="57.378906" xlink:href="#DejaVuSans-97"/>
      <use x="118.658203" xlink:href="#DejaVuSans-108"/>
      <use x="146.441406" xlink:href="#DejaVuSans-115"/>
      <use x="198.541016" xlink:href="#DejaVuSans-101"/>
      <use x="260.064453" xlink:href="#DejaVuSans-47"/>
      <use x="293.755859" xlink:href="#DejaVuSans-70"/>
      <use x="351.134766" xlink:href="#DejaVuSans-97"/>
      <use x="412.414062" xlink:href="#DejaVuSans-108"/>
      <use x="440.197266" xlink:href="#DejaVuSans-115"/>
      <use x="492.296875" xlink:href="#DejaVuSans-101"/>
     </g>
    </g>
    <g id="patch_9">
     <path d="M 434.16 107.672727 
L 645.84 107.672727 
L 645.84 59.236364 
L 434.16 59.236364 
z
" style="fill:#ffffff;stroke:#ffffff;stroke-linejoin:miter;"/>
    </g>
    <g id="text_8">
     <!-- True/True -->
     <defs>
      <path d="M -0.296875 72.90625 
L 61.375 72.90625 
L 61.375 64.59375 
L 35.5 64.59375 
L 35.5 0 
L 25.59375 0 
L 25.59375 64.59375 
L -0.296875 64.59375 
z
" id="DejaVuSans-84"/>
      <path d="M 41.109375 46.296875 
Q 39.59375 47.171875 37.8125 47.578125 
Q 36.03125 48 33.890625 48 
Q 26.265625 48 22.1875 43.046875 
Q 18.109375 38.09375 18.109375 28.8125 
L 18.109375 0 
L 9.078125 0 
L 9.078125 54.6875 
L 18.109375 54.6875 
L 18.109375 46.1875 
Q 20.953125 51.171875 25.484375 53.578125 
Q 30.03125 56 36.53125 56 
Q 37.453125 56 38.578125 55.875 
Q 39.703125 55.765625 41.0625 55.515625 
z
" id="DejaVuSans-114"/>
      <path d="M 8.5 21.578125 
L 8.5 54.6875 
L 17.484375 54.6875 
L 17.484375 21.921875 
Q 17.484375 14.15625 20.5 10.265625 
Q 23.53125 6.390625 29.59375 6.390625 
Q 36.859375 6.390625 41.078125 11.03125 
Q 45.3125 15.671875 45.3125 23.6875 
L 45.3125 54.6875 
L 54.296875 54.6875 
L 54.296875 0 
L 45.3125 0 
L 45.3125 8.40625 
Q 42.046875 3.421875 37.71875 1 
Q 33.40625 -1.421875 27.6875 -1.421875 
Q 18.265625 -1.421875 13.375 4.4375 
Q 8.5 10.296875 8.5 21.578125 
z
M 31.109375 56 
z
" id="DejaVuSans-117"/>
     </defs>
     <g transform="translate(546.682 87.869545)scale(0.16 -0.16)">
      <use xlink:href="#DejaVuSans-84"/>
      <use x="60.865234" xlink:href="#DejaVuSans-114"/>
      <use x="101.978516" xlink:href="#DejaVuSans-117"/>
      <use x="165.357422" xlink:href="#DejaVuSans-101"/>
      <use x="226.880859" xlink:href="#DejaVuSans-47"/>
      <use x="260.572266" xlink:href="#DejaVuSans-84"/>
      <use x="321.4375" xlink:href="#DejaVuSans-114"/>
      <use x="362.550781" xlink:href="#DejaVuSans-117"/>
      <use x="425.929688" xlink:href="#DejaVuSans-101"/>
     </g>
    </g>
    <g id="patch_10">
     <path d="M 645.84 107.672727 
L 857.52 107.672727 
L 857.52 59.236364 
L 645.84 59.236364 
z
" style="fill:#ffffff;stroke:#ffffff;stroke-linejoin:miter;"/>
    </g>
    <g id="text_9">
     <!-- True/False -->
     <g transform="translate(753.052 87.869545)scale(0.16 -0.16)">
      <use xlink:href="#DejaVuSans-84"/>
      <use x="60.865234" xlink:href="#DejaVuSans-114"/>
      <use x="101.978516" xlink:href="#DejaVuSans-117"/>
      <use x="165.357422" xlink:href="#DejaVuSans-101"/>
      <use x="226.880859" xlink:href="#DejaVuSans-47"/>
      <use x="260.572266" xlink:href="#DejaVuSans-70"/>
      <use x="317.951172" xlink:href="#DejaVuSans-97"/>
      <use x="379.230469" xlink:href="#DejaVuSans-108"/>
      <use x="407.013672" xlink:href="#DejaVuSans-115"/>
      <use x="459.113281" xlink:href="#DejaVuSans-101"/>
     </g>
    </g>
    <g id="patch_11">
     <path d="M 857.52 107.672727 
L 1069.2 107.672727 
L 1069.2 59.236364 
L 857.52 59.236364 
z
" style="fill:#ffffff;stroke:#ffffff;stroke-linejoin:miter;"/>
    </g>
    <g id="text_10">
     <!-- False/True -->
     <g transform="translate(964.732 87.869545)scale(0.16 -0.16)">
      <use xlink:href="#DejaVuSans-70"/>
      <use x="57.378906" xlink:href="#DejaVuSans-97"/>
      <use x="118.658203" xlink:href="#DejaVuSans-108"/>
      <use x="146.441406" xlink:href="#DejaVuSans-115"/>
      <use x="198.541016" xlink:href="#DejaVuSans-101"/>
      <use x="260.064453" xlink:href="#DejaVuSans-47"/>
      <use x="293.755859" xlink:href="#DejaVuSans-84"/>
      <use x="354.621094" xlink:href="#DejaVuSans-114"/>
      <use x="395.734375" xlink:href="#DejaVuSans-117"/>
      <use x="459.113281" xlink:href="#DejaVuSans-101"/>
     </g>
    </g>
    <g id="patch_12">
     <path d="M 10.8 156.109091 
L 222.48 156.109091 
L 222.48 107.672727 
L 10.8 107.672727 
z
" style="fill:#f1f1f2;stroke:#ffffff;stroke-linejoin:miter;"/>
    </g>
    <g id="text_11">
     <!-- 1 -->
     <defs>
      <path d="M 12.40625 8.296875 
L 28.515625 8.296875 
L 28.515625 63.921875 
L 10.984375 60.40625 
L 10.984375 69.390625 
L 28.421875 72.90625 
L 38.28125 72.90625 
L 38.28125 8.296875 
L 54.390625 8.296875 
L 54.390625 0 
L 12.40625 0 
z
" id="DejaVuSans-49"/>
     </defs>
     <g transform="translate(191.132 136.305909)scale(0.16 -0.16)">
      <use xlink:href="#DejaVuSans-49"/>
     </g>
    </g>
    <g id="patch_13">
     <path d="M 222.48 156.109091 
L 434.16 156.109091 
L 434.16 107.672727 
L 222.48 107.672727 
z
" style="fill:#f1f1f2;stroke:#ffffff;stroke-linejoin:miter;"/>
    </g>
    <g id="text_12">
     <!-- True/False -->
     <g transform="translate(329.692 136.305909)scale(0.16 -0.16)">
      <use xlink:href="#DejaVuSans-84"/>
      <use x="60.865234" xlink:href="#DejaVuSans-114"/>
      <use x="101.978516" xlink:href="#DejaVuSans-117"/>
      <use x="165.357422" xlink:href="#DejaVuSans-101"/>
      <use x="226.880859" xlink:href="#DejaVuSans-47"/>
      <use x="260.572266" xlink:href="#DejaVuSans-70"/>
      <use x="317.951172" xlink:href="#DejaVuSans-97"/>
      <use x="379.230469" xlink:href="#DejaVuSans-108"/>
      <use x="407.013672" xlink:href="#DejaVuSans-115"/>
      <use x="459.113281" xlink:href="#DejaVuSans-101"/>
     </g>
    </g>
    <g id="patch_14">
     <path d="M 434.16 156.109091 
L 645.84 156.109091 
L 645.84 107.672727 
L 434.16 107.672727 
z
" style="fill:#f1f1f2;stroke:#ffffff;stroke-linejoin:miter;"/>
    </g>
    <g id="text_13">
     <!-- False/False -->
     <g transform="translate(536.062 136.305909)scale(0.16 -0.16)">
      <use xlink:href="#DejaVuSans-70"/>
      <use x="57.378906" xlink:href="#DejaVuSans-97"/>
      <use x="118.658203" xlink:href="#DejaVuSans-108"/>
      <use x="146.441406" xlink:href="#DejaVuSans-115"/>
      <use x="198.541016" xlink:href="#DejaVuSans-101"/>
      <use x="260.064453" xlink:href="#DejaVuSans-47"/>
      <use x="293.755859" xlink:href="#DejaVuSans-70"/>
      <use x="351.134766" xlink:href="#DejaVuSans-97"/>
      <use x="412.414062" xlink:href="#DejaVuSans-108"/>
      <use x="440.197266" xlink:href="#DejaVuSans-115"/>
      <use x="492.296875" xlink:href="#DejaVuSans-101"/>
     </g>
    </g>
    <g id="patch_15">
     <path d="M 645.84 156.109091 
L 857.52 156.109091 
L 857.52 107.672727 
L 645.84 107.672727 
z
" style="fill:#f1f1f2;stroke:#ffffff;stroke-linejoin:miter;"/>
    </g>
    <g id="text_14">
     <!-- False/False -->
     <g transform="translate(747.742 136.305909)scale(0.16 -0.16)">
      <use xlink:href="#DejaVuSans-70"/>
      <use x="57.378906" xlink:href="#DejaVuSans-97"/>
      <use x="118.658203" xlink:href="#DejaVuSans-108"/>
      <use x="146.441406" xlink:href="#DejaVuSans-115"/>
      <use x="198.541016" xlink:href="#DejaVuSans-101"/>
      <use x="260.064453" xlink:href="#DejaVuSans-47"/>
      <use x="293.755859" xlink:href="#DejaVuSans-70"/>
      <use x="351.134766" xlink:href="#DejaVuSans-97"/>
      <use x="412.414062" xlink:href="#DejaVuSans-108"/>
      <use x="440.197266" xlink:href="#DejaVuSans-115"/>
      <use x="492.296875" xlink:href="#DejaVuSans-101"/>
     </g>
    </g>
    <g id="patch_16">
     <path d="M 857.52 156.109091 
L 1069.2 156.109091 
L 1069.2 107.672727 
L 857.52 107.672727 
z
" style="fill:#f1f1f2;stroke:#ffffff;stroke-linejoin:miter;"/>
    </g>
    <g id="text_15">
     <!-- False/False -->
     <g transform="translate(959.422 136.305909)scale(0.16 -0.16)">
      <use xlink:href="#DejaVuSans-70"/>
      <use x="57.378906" xlink:href="#DejaVuSans-97"/>
      <use x="118.658203" xlink:href="#DejaVuSans-108"/>
      <use x="146.441406" xlink:href="#DejaVuSans-115"/>
      <use x="198.541016" xlink:href="#DejaVuSans-101"/>
      <use x="260.064453" xlink:href="#DejaVuSans-47"/>
      <use x="293.755859" xlink:href="#DejaVuSans-70"/>
      <use x="351.134766" xlink:href="#DejaVuSans-97"/>
      <use x="412.414062" xlink:href="#DejaVuSans-108"/>
      <use x="440.197266" xlink:href="#DejaVuSans-115"/>
      <use x="492.296875" xlink:href="#DejaVuSans-101"/>
     </g>
    </g>
    <g id="patch_17">
     <path d="M 10.8 204.545455 
L 222.48 204.545455 
L 222.48 156.109091 
L 10.8 156.109091 
z
" style="fill:#ffffff;stroke:#ffffff;stroke-linejoin:miter;"/>
    </g>
    <g id="text_16">
     <!-- 2 -->
     <defs>
      <path d="M 19.1875 8.296875 
L 53.609375 8.296875 
L 53.609375 0 
L 7.328125 0 
L 7.328125 8.296875 
Q 12.9375 14.109375 22.625 23.890625 
Q 32.328125 33.6875 34.8125 36.53125 
Q 39.546875 41.84375 41.421875 45.53125 
Q 43.3125 49.21875 43.3125 52.78125 
Q 43.3125 58.59375 39.234375 62.25 
Q 35.15625 65.921875 28.609375 65.921875 
Q 23.96875 65.921875 18.8125 64.3125 
Q 13.671875 62.703125 7.8125 59.421875 
L 7.8125 69.390625 
Q 13.765625 71.78125 18.9375 73 
Q 24.125 74.21875 28.421875 74.21875 
Q 39.75 74.21875 46.484375 68.546875 
Q 53.21875 62.890625 53.21875 53.421875 
Q 53.21875 48.921875 51.53125 44.890625 
Q 49.859375 40.875 45.40625 35.40625 
Q 44.1875 33.984375 37.640625 27.21875 
Q 31.109375 20.453125 19.1875 8.296875 
z
" id="DejaVuSans-50"/>
     </defs>
     <g transform="translate(191.132 184.742273)scale(0.16 -0.16)">
      <use xlink:href="#DejaVuSans-50"/>
     </g>
    </g>
    <g id="patch_18">
     <path d="M 222.48 204.545455 
L 434.16 204.545455 
L 434.16 156.109091 
L 222.48 156.109091 
z
" style="fill:#ffffff;stroke:#ffffff;stroke-linejoin:miter;"/>
    </g>
    <g id="text_17">
     <!-- True/False -->
     <g transform="translate(329.692 184.742273)scale(0.16 -0.16)">
      <use xlink:href="#DejaVuSans-84"/>
      <use x="60.865234" xlink:href="#DejaVuSans-114"/>
      <use x="101.978516" xlink:href="#DejaVuSans-117"/>
      <use x="165.357422" xlink:href="#DejaVuSans-101"/>
      <use x="226.880859" xlink:href="#DejaVuSans-47"/>
      <use x="260.572266" xlink:href="#DejaVuSans-70"/>
      <use x="317.951172" xlink:href="#DejaVuSans-97"/>
      <use x="379.230469" xlink:href="#DejaVuSans-108"/>
      <use x="407.013672" xlink:href="#DejaVuSans-115"/>
      <use x="459.113281" xlink:href="#DejaVuSans-101"/>
     </g>
    </g>
    <g id="patch_19">
     <path d="M 434.16 204.545455 
L 645.84 204.545455 
L 645.84 156.109091 
L 434.16 156.109091 
z
" style="fill:#ffffff;stroke:#ffffff;stroke-linejoin:miter;"/>
    </g>
    <g id="text_18">
     <!-- True/False -->
     <g transform="translate(541.372 184.742273)scale(0.16 -0.16)">
      <use xlink:href="#DejaVuSans-84"/>
      <use x="60.865234" xlink:href="#DejaVuSans-114"/>
      <use x="101.978516" xlink:href="#DejaVuSans-117"/>
      <use x="165.357422" xlink:href="#DejaVuSans-101"/>
      <use x="226.880859" xlink:href="#DejaVuSans-47"/>
      <use x="260.572266" xlink:href="#DejaVuSans-70"/>
      <use x="317.951172" xlink:href="#DejaVuSans-97"/>
      <use x="379.230469" xlink:href="#DejaVuSans-108"/>
      <use x="407.013672" xlink:href="#DejaVuSans-115"/>
      <use x="459.113281" xlink:href="#DejaVuSans-101"/>
     </g>
    </g>
    <g id="patch_20">
     <path d="M 645.84 204.545455 
L 857.52 204.545455 
L 857.52 156.109091 
L 645.84 156.109091 
z
" style="fill:#ffffff;stroke:#ffffff;stroke-linejoin:miter;"/>
    </g>
    <g id="text_19">
     <!-- True/True -->
     <g transform="translate(758.362 184.742273)scale(0.16 -0.16)">
      <use xlink:href="#DejaVuSans-84"/>
      <use x="60.865234" xlink:href="#DejaVuSans-114"/>
      <use x="101.978516" xlink:href="#DejaVuSans-117"/>
      <use x="165.357422" xlink:href="#DejaVuSans-101"/>
      <use x="226.880859" xlink:href="#DejaVuSans-47"/>
      <use x="260.572266" xlink:href="#DejaVuSans-84"/>
      <use x="321.4375" xlink:href="#DejaVuSans-114"/>
      <use x="362.550781" xlink:href="#DejaVuSans-117"/>
      <use x="425.929688" xlink:href="#DejaVuSans-101"/>
     </g>
    </g>
    <g id="patch_21">
     <path d="M 857.52 204.545455 
L 1069.2 204.545455 
L 1069.2 156.109091 
L 857.52 156.109091 
z
" style="fill:#ffffff;stroke:#ffffff;stroke-linejoin:miter;"/>
    </g>
    <g id="text_20">
     <!-- True/False -->
     <g transform="translate(964.732 184.742273)scale(0.16 -0.16)">
      <use xlink:href="#DejaVuSans-84"/>
      <use x="60.865234" xlink:href="#DejaVuSans-114"/>
      <use x="101.978516" xlink:href="#DejaVuSans-117"/>
      <use x="165.357422" xlink:href="#DejaVuSans-101"/>
      <use x="226.880859" xlink:href="#DejaVuSans-47"/>
      <use x="260.572266" xlink:href="#DejaVuSans-70"/>
      <use x="317.951172" xlink:href="#DejaVuSans-97"/>
      <use x="379.230469" xlink:href="#DejaVuSans-108"/>
      <use x="407.013672" xlink:href="#DejaVuSans-115"/>
      <use x="459.113281" xlink:href="#DejaVuSans-101"/>
     </g>
    </g>
    <g id="patch_22">
     <path d="M 10.8 252.981818 
L 222.48 252.981818 
L 222.48 204.545455 
L 10.8 204.545455 
z
" style="fill:#f1f1f2;stroke:#ffffff;stroke-linejoin:miter;"/>
    </g>
    <g id="text_21">
     <!-- 3 -->
     <defs>
      <path d="M 40.578125 39.3125 
Q 47.65625 37.796875 51.625 33 
Q 55.609375 28.21875 55.609375 21.1875 
Q 55.609375 10.40625 48.1875 4.484375 
Q 40.765625 -1.421875 27.09375 -1.421875 
Q 22.515625 -1.421875 17.65625 -0.515625 
Q 12.796875 0.390625 7.625 2.203125 
L 7.625 11.71875 
Q 11.71875 9.328125 16.59375 8.109375 
Q 21.484375 6.890625 26.8125 6.890625 
Q 36.078125 6.890625 40.9375 10.546875 
Q 45.796875 14.203125 45.796875 21.1875 
Q 45.796875 27.640625 41.28125 31.265625 
Q 36.765625 34.90625 28.71875 34.90625 
L 20.21875 34.90625 
L 20.21875 43.015625 
L 29.109375 43.015625 
Q 36.375 43.015625 40.234375 45.921875 
Q 44.09375 48.828125 44.09375 54.296875 
Q 44.09375 59.90625 40.109375 62.90625 
Q 36.140625 65.921875 28.71875 65.921875 
Q 24.65625 65.921875 20.015625 65.03125 
Q 15.375 64.15625 9.8125 62.3125 
L 9.8125 71.09375 
Q 15.4375 72.65625 20.34375 73.4375 
Q 25.25 74.21875 29.59375 74.21875 
Q 40.828125 74.21875 47.359375 69.109375 
Q 53.90625 64.015625 53.90625 55.328125 
Q 53.90625 49.265625 50.4375 45.09375 
Q 46.96875 40.921875 40.578125 39.3125 
z
" id="DejaVuSans-51"/>
     </defs>
     <g transform="translate(191.132 233.178636)scale(0.16 -0.16)">
      <use xlink:href="#DejaVuSans-51"/>
     </g>
    </g>
    <g id="patch_23">
     <path d="M 222.48 252.981818 
L 434.16 252.981818 
L 434.16 204.545455 
L 222.48 204.545455 
z
" style="fill:#f1f1f2;stroke:#ffffff;stroke-linejoin:miter;"/>
    </g>
    <g id="text_22">
     <!-- False/True -->
     <g transform="translate(329.692 233.178636)scale(0.16 -0.16)">
      <use xlink:href="#DejaVuSans-70"/>
      <use x="57.378906" xlink:href="#DejaVuSans-97"/>
      <use x="118.658203" xlink:href="#DejaVuSans-108"/>
      <use x="146.441406" xlink:href="#DejaVuSans-115"/>
      <use x="198.541016" xlink:href="#DejaVuSans-101"/>
      <use x="260.064453" xlink:href="#DejaVuSans-47"/>
      <use x="293.755859" xlink:href="#DejaVuSans-84"/>
      <use x="354.621094" xlink:href="#DejaVuSans-114"/>
      <use x="395.734375" xlink:href="#DejaVuSans-117"/>
      <use x="459.113281" xlink:href="#DejaVuSans-101"/>
     </g>
    </g>
    <g id="patch_24">
     <path d="M 434.16 252.981818 
L 645.84 252.981818 
L 645.84 204.545455 
L 434.16 204.545455 
z
" style="fill:#f1f1f2;stroke:#ffffff;stroke-linejoin:miter;"/>
    </g>
    <g id="text_23">
     <!-- True/False -->
     <g transform="translate(541.372 233.178636)scale(0.16 -0.16)">
      <use xlink:href="#DejaVuSans-84"/>
      <use x="60.865234" xlink:href="#DejaVuSans-114"/>
      <use x="101.978516" xlink:href="#DejaVuSans-117"/>
      <use x="165.357422" xlink:href="#DejaVuSans-101"/>
      <use x="226.880859" xlink:href="#DejaVuSans-47"/>
      <use x="260.572266" xlink:href="#DejaVuSans-70"/>
      <use x="317.951172" xlink:href="#DejaVuSans-97"/>
      <use x="379.230469" xlink:href="#DejaVuSans-108"/>
      <use x="407.013672" xlink:href="#DejaVuSans-115"/>
      <use x="459.113281" xlink:href="#DejaVuSans-101"/>
     </g>
    </g>
    <g id="patch_25">
     <path d="M 645.84 252.981818 
L 857.52 252.981818 
L 857.52 204.545455 
L 645.84 204.545455 
z
" style="fill:#f1f1f2;stroke:#ffffff;stroke-linejoin:miter;"/>
    </g>
    <g id="text_24">
     <!-- False/False -->
     <g transform="translate(747.742 233.178636)scale(0.16 -0.16)">
      <use xlink:href="#DejaVuSans-70"/>
      <use x="57.378906" xlink:href="#DejaVuSans-97"/>
      <use x="118.658203" xlink:href="#DejaVuSans-108"/>
      <use x="146.441406" xlink:href="#DejaVuSans-115"/>
      <use x="198.541016" xlink:href="#DejaVuSans-101"/>
      <use x="260.064453" xlink:href="#DejaVuSans-47"/>
      <use x="293.755859" xlink:href="#DejaVuSans-70"/>
      <use x="351.134766" xlink:href="#DejaVuSans-97"/>
      <use x="412.414062" xlink:href="#DejaVuSans-108"/>
      <use x="440.197266" xlink:href="#DejaVuSans-115"/>
      <use x="492.296875" xlink:href="#DejaVuSans-101"/>
     </g>
    </g>
    <g id="patch_26">
     <path d="M 857.52 252.981818 
L 1069.2 252.981818 
L 1069.2 204.545455 
L 857.52 204.545455 
z
" style="fill:#f1f1f2;stroke:#ffffff;stroke-linejoin:miter;"/>
    </g>
    <g id="text_25">
     <!-- False/True -->
     <g transform="translate(964.732 233.178636)scale(0.16 -0.16)">
      <use xlink:href="#DejaVuSans-70"/>
      <use x="57.378906" xlink:href="#DejaVuSans-97"/>
      <use x="118.658203" xlink:href="#DejaVuSans-108"/>
      <use x="146.441406" xlink:href="#DejaVuSans-115"/>
      <use x="198.541016" xlink:href="#DejaVuSans-101"/>
      <use x="260.064453" xlink:href="#DejaVuSans-47"/>
      <use x="293.755859" xlink:href="#DejaVuSans-84"/>
      <use x="354.621094" xlink:href="#DejaVuSans-114"/>
      <use x="395.734375" xlink:href="#DejaVuSans-117"/>
      <use x="459.113281" xlink:href="#DejaVuSans-101"/>
     </g>
    </g>
    <g id="patch_27">
     <path d="M 10.8 301.418182 
L 222.48 301.418182 
L 222.48 252.981818 
L 10.8 252.981818 
z
" style="fill:#ffffff;stroke:#ffffff;stroke-linejoin:miter;"/>
    </g>
    <g id="text_26">
     <!-- 4 -->
     <defs>
      <path d="M 37.796875 64.3125 
L 12.890625 25.390625 
L 37.796875 25.390625 
z
M 35.203125 72.90625 
L 47.609375 72.90625 
L 47.609375 25.390625 
L 58.015625 25.390625 
L 58.015625 17.1875 
L 47.609375 17.1875 
L 47.609375 0 
L 37.796875 0 
L 37.796875 17.1875 
L 4.890625 17.1875 
L 4.890625 26.703125 
z
" id="DejaVuSans-52"/>
     </defs>
     <g transform="translate(191.132 281.615)scale(0.16 -0.16)">
      <use xlink:href="#DejaVuSans-52"/>
     </g>
    </g>
    <g id="patch_28">
     <path d="M 222.48 301.418182 
L 434.16 301.418182 
L 434.16 252.981818 
L 222.48 252.981818 
z
" style="fill:#ffffff;stroke:#ffffff;stroke-linejoin:miter;"/>
    </g>
    <g id="text_27">
     <!-- True/True -->
     <g transform="translate(335.002 281.615)scale(0.16 -0.16)">
      <use xlink:href="#DejaVuSans-84"/>
      <use x="60.865234" xlink:href="#DejaVuSans-114"/>
      <use x="101.978516" xlink:href="#DejaVuSans-117"/>
      <use x="165.357422" xlink:href="#DejaVuSans-101"/>
      <use x="226.880859" xlink:href="#DejaVuSans-47"/>
      <use x="260.572266" xlink:href="#DejaVuSans-84"/>
      <use x="321.4375" xlink:href="#DejaVuSans-114"/>
      <use x="362.550781" xlink:href="#DejaVuSans-117"/>
      <use x="425.929688" xlink:href="#DejaVuSans-101"/>
     </g>
    </g>
    <g id="patch_29">
     <path d="M 434.16 301.418182 
L 645.84 301.418182 
L 645.84 252.981818 
L 434.16 252.981818 
z
" style="fill:#ffffff;stroke:#ffffff;stroke-linejoin:miter;"/>
    </g>
    <g id="text_28">
     <!-- True/False -->
     <g transform="translate(541.372 281.615)scale(0.16 -0.16)">
      <use xlink:href="#DejaVuSans-84"/>
      <use x="60.865234" xlink:href="#DejaVuSans-114"/>
      <use x="101.978516" xlink:href="#DejaVuSans-117"/>
      <use x="165.357422" xlink:href="#DejaVuSans-101"/>
      <use x="226.880859" xlink:href="#DejaVuSans-47"/>
      <use x="260.572266" xlink:href="#DejaVuSans-70"/>
      <use x="317.951172" xlink:href="#DejaVuSans-97"/>
      <use x="379.230469" xlink:href="#DejaVuSans-108"/>
      <use x="407.013672" xlink:href="#DejaVuSans-115"/>
      <use x="459.113281" xlink:href="#DejaVuSans-101"/>
     </g>
    </g>
    <g id="patch_30">
     <path d="M 645.84 301.418182 
L 857.52 301.418182 
L 857.52 252.981818 
L 645.84 252.981818 
z
" style="fill:#ffffff;stroke:#ffffff;stroke-linejoin:miter;"/>
    </g>
    <g id="text_29">
     <!-- False/True -->
     <g transform="translate(753.052 281.615)scale(0.16 -0.16)">
      <use xlink:href="#DejaVuSans-70"/>
      <use x="57.378906" xlink:href="#DejaVuSans-97"/>
      <use x="118.658203" xlink:href="#DejaVuSans-108"/>
      <use x="146.441406" xlink:href="#DejaVuSans-115"/>
      <use x="198.541016" xlink:href="#DejaVuSans-101"/>
      <use x="260.064453" xlink:href="#DejaVuSans-47"/>
      <use x="293.755859" xlink:href="#DejaVuSans-84"/>
      <use x="354.621094" xlink:href="#DejaVuSans-114"/>
      <use x="395.734375" xlink:href="#DejaVuSans-117"/>
      <use x="459.113281" xlink:href="#DejaVuSans-101"/>
     </g>
    </g>
    <g id="patch_31">
     <path d="M 857.52 301.418182 
L 1069.2 301.418182 
L 1069.2 252.981818 
L 857.52 252.981818 
z
" style="fill:#ffffff;stroke:#ffffff;stroke-linejoin:miter;"/>
    </g>
    <g id="text_30">
     <!-- True/False -->
     <g transform="translate(964.732 281.615)scale(0.16 -0.16)">
      <use xlink:href="#DejaVuSans-84"/>
      <use x="60.865234" xlink:href="#DejaVuSans-114"/>
      <use x="101.978516" xlink:href="#DejaVuSans-117"/>
      <use x="165.357422" xlink:href="#DejaVuSans-101"/>
      <use x="226.880859" xlink:href="#DejaVuSans-47"/>
      <use x="260.572266" xlink:href="#DejaVuSans-70"/>
      <use x="317.951172" xlink:href="#DejaVuSans-97"/>
      <use x="379.230469" xlink:href="#DejaVuSans-108"/>
      <use x="407.013672" xlink:href="#DejaVuSans-115"/>
      <use x="459.113281" xlink:href="#DejaVuSans-101"/>
     </g>
    </g>
    <g id="patch_32">
     <path d="M 10.8 349.854545 
L 222.48 349.854545 
L 222.48 301.418182 
L 10.8 301.418182 
z
" style="fill:#f1f1f2;stroke:#ffffff;stroke-linejoin:miter;"/>
    </g>
    <g id="text_31">
     <!-- 5 -->
     <defs>
      <path d="M 10.796875 72.90625 
L 49.515625 72.90625 
L 49.515625 64.59375 
L 19.828125 64.59375 
L 19.828125 46.734375 
Q 21.96875 47.46875 24.109375 47.828125 
Q 26.265625 48.1875 28.421875 48.1875 
Q 40.625 48.1875 47.75 41.5 
Q 54.890625 34.8125 54.890625 23.390625 
Q 54.890625 11.625 47.5625 5.09375 
Q 40.234375 -1.421875 26.90625 -1.421875 
Q 22.3125 -1.421875 17.546875 -0.640625 
Q 12.796875 0.140625 7.71875 1.703125 
L 7.71875 11.625 
Q 12.109375 9.234375 16.796875 8.0625 
Q 21.484375 6.890625 26.703125 6.890625 
Q 35.15625 6.890625 40.078125 11.328125 
Q 45.015625 15.765625 45.015625 23.390625 
Q 45.015625 31 40.078125 35.4375 
Q 35.15625 39.890625 26.703125 39.890625 
Q 22.75 39.890625 18.8125 39.015625 
Q 14.890625 38.140625 10.796875 36.28125 
z
" id="DejaVuSans-53"/>
     </defs>
     <g transform="translate(191.132 330.051364)scale(0.16 -0.16)">
      <use xlink:href="#DejaVuSans-53"/>
     </g>
    </g>
    <g id="patch_33">
     <path d="M 222.48 349.854545 
L 434.16 349.854545 
L 434.16 301.418182 
L 222.48 301.418182 
z
" style="fill:#f1f1f2;stroke:#ffffff;stroke-linejoin:miter;"/>
    </g>
    <g id="text_32">
     <!-- True/True -->
     <g transform="translate(335.002 330.051364)scale(0.16 -0.16)">
      <use xlink:href="#DejaVuSans-84"/>
      <use x="60.865234" xlink:href="#DejaVuSans-114"/>
      <use x="101.978516" xlink:href="#DejaVuSans-117"/>
      <use x="165.357422" xlink:href="#DejaVuSans-101"/>
      <use x="226.880859" xlink:href="#DejaVuSans-47"/>
      <use x="260.572266" xlink:href="#DejaVuSans-84"/>
      <use x="321.4375" xlink:href="#DejaVuSans-114"/>
      <use x="362.550781" xlink:href="#DejaVuSans-117"/>
      <use x="425.929688" xlink:href="#DejaVuSans-101"/>
     </g>
    </g>
    <g id="patch_34">
     <path d="M 434.16 349.854545 
L 645.84 349.854545 
L 645.84 301.418182 
L 434.16 301.418182 
z
" style="fill:#f1f1f2;stroke:#ffffff;stroke-linejoin:miter;"/>
    </g>
    <g id="text_33">
     <!-- True/True -->
     <g transform="translate(546.682 330.051364)scale(0.16 -0.16)">
      <use xlink:href="#DejaVuSans-84"/>
      <use x="60.865234" xlink:href="#DejaVuSans-114"/>
      <use x="101.978516" xlink:href="#DejaVuSans-117"/>
      <use x="165.357422" xlink:href="#DejaVuSans-101"/>
      <use x="226.880859" xlink:href="#DejaVuSans-47"/>
      <use x="260.572266" xlink:href="#DejaVuSans-84"/>
      <use x="321.4375" xlink:href="#DejaVuSans-114"/>
      <use x="362.550781" xlink:href="#DejaVuSans-117"/>
      <use x="425.929688" xlink:href="#DejaVuSans-101"/>
     </g>
    </g>
    <g id="patch_35">
     <path d="M 645.84 349.854545 
L 857.52 349.854545 
L 857.52 301.418182 
L 645.84 301.418182 
z
" style="fill:#f1f1f2;stroke:#ffffff;stroke-linejoin:miter;"/>
    </g>
    <g id="text_34">
     <!-- True/True -->
     <g transform="translate(758.362 330.051364)scale(0.16 -0.16)">
      <use xlink:href="#DejaVuSans-84"/>
      <use x="60.865234" xlink:href="#DejaVuSans-114"/>
      <use x="101.978516" xlink:href="#DejaVuSans-117"/>
      <use x="165.357422" xlink:href="#DejaVuSans-101"/>
      <use x="226.880859" xlink:href="#DejaVuSans-47"/>
      <use x="260.572266" xlink:href="#DejaVuSans-84"/>
      <use x="321.4375" xlink:href="#DejaVuSans-114"/>
      <use x="362.550781" xlink:href="#DejaVuSans-117"/>
      <use x="425.929688" xlink:href="#DejaVuSans-101"/>
     </g>
    </g>
    <g id="patch_36">
     <path d="M 857.52 349.854545 
L 1069.2 349.854545 
L 1069.2 301.418182 
L 857.52 301.418182 
z
" style="fill:#f1f1f2;stroke:#ffffff;stroke-linejoin:miter;"/>
    </g>
    <g id="text_35">
     <!-- True/True -->
     <g transform="translate(970.042 330.051364)scale(0.16 -0.16)">
      <use xlink:href="#DejaVuSans-84"/>
      <use x="60.865234" xlink:href="#DejaVuSans-114"/>
      <use x="101.978516" xlink:href="#DejaVuSans-117"/>
      <use x="165.357422" xlink:href="#DejaVuSans-101"/>
      <use x="226.880859" xlink:href="#DejaVuSans-47"/>
      <use x="260.572266" xlink:href="#DejaVuSans-84"/>
      <use x="321.4375" xlink:href="#DejaVuSans-114"/>
      <use x="362.550781" xlink:href="#DejaVuSans-117"/>
      <use x="425.929688" xlink:href="#DejaVuSans-101"/>
     </g>
    </g>
    <g id="patch_37">
     <path d="M 10.8 398.290909 
L 222.48 398.290909 
L 222.48 349.854545 
L 10.8 349.854545 
z
" style="fill:#ffffff;stroke:#ffffff;stroke-linejoin:miter;"/>
    </g>
    <g id="text_36">
     <!-- 6 -->
     <defs>
      <path d="M 33.015625 40.375 
Q 26.375 40.375 22.484375 35.828125 
Q 18.609375 31.296875 18.609375 23.390625 
Q 18.609375 15.53125 22.484375 10.953125 
Q 26.375 6.390625 33.015625 6.390625 
Q 39.65625 6.390625 43.53125 10.953125 
Q 47.40625 15.53125 47.40625 23.390625 
Q 47.40625 31.296875 43.53125 35.828125 
Q 39.65625 40.375 33.015625 40.375 
z
M 52.59375 71.296875 
L 52.59375 62.3125 
Q 48.875 64.0625 45.09375 64.984375 
Q 41.3125 65.921875 37.59375 65.921875 
Q 27.828125 65.921875 22.671875 59.328125 
Q 17.53125 52.734375 16.796875 39.40625 
Q 19.671875 43.65625 24.015625 45.921875 
Q 28.375 48.1875 33.59375 48.1875 
Q 44.578125 48.1875 50.953125 41.515625 
Q 57.328125 34.859375 57.328125 23.390625 
Q 57.328125 12.15625 50.6875 5.359375 
Q 44.046875 -1.421875 33.015625 -1.421875 
Q 20.359375 -1.421875 13.671875 8.265625 
Q 6.984375 17.96875 6.984375 36.375 
Q 6.984375 53.65625 15.1875 63.9375 
Q 23.390625 74.21875 37.203125 74.21875 
Q 40.921875 74.21875 44.703125 73.484375 
Q 48.484375 72.75 52.59375 71.296875 
z
" id="DejaVuSans-54"/>
     </defs>
     <g transform="translate(191.132 378.487727)scale(0.16 -0.16)">
      <use xlink:href="#DejaVuSans-54"/>
     </g>
    </g>
    <g id="patch_38">
     <path d="M 222.48 398.290909 
L 434.16 398.290909 
L 434.16 349.854545 
L 222.48 349.854545 
z
" style="fill:#ffffff;stroke:#ffffff;stroke-linejoin:miter;"/>
    </g>
    <g id="text_37">
     <!-- True/True -->
     <g transform="translate(335.002 378.487727)scale(0.16 -0.16)">
      <use xlink:href="#DejaVuSans-84"/>
      <use x="60.865234" xlink:href="#DejaVuSans-114"/>
      <use x="101.978516" xlink:href="#DejaVuSans-117"/>
      <use x="165.357422" xlink:href="#DejaVuSans-101"/>
      <use x="226.880859" xlink:href="#DejaVuSans-47"/>
      <use x="260.572266" xlink:href="#DejaVuSans-84"/>
      <use x="321.4375" xlink:href="#DejaVuSans-114"/>
      <use x="362.550781" xlink:href="#DejaVuSans-117"/>
      <use x="425.929688" xlink:href="#DejaVuSans-101"/>
     </g>
    </g>
    <g id="patch_39">
     <path d="M 434.16 398.290909 
L 645.84 398.290909 
L 645.84 349.854545 
L 434.16 349.854545 
z
" style="fill:#ffffff;stroke:#ffffff;stroke-linejoin:miter;"/>
    </g>
    <g id="text_38">
     <!-- False/False -->
     <g transform="translate(536.062 378.487727)scale(0.16 -0.16)">
      <use xlink:href="#DejaVuSans-70"/>
      <use x="57.378906" xlink:href="#DejaVuSans-97"/>
      <use x="118.658203" xlink:href="#DejaVuSans-108"/>
      <use x="146.441406" xlink:href="#DejaVuSans-115"/>
      <use x="198.541016" xlink:href="#DejaVuSans-101"/>
      <use x="260.064453" xlink:href="#DejaVuSans-47"/>
      <use x="293.755859" xlink:href="#DejaVuSans-70"/>
      <use x="351.134766" xlink:href="#DejaVuSans-97"/>
      <use x="412.414062" xlink:href="#DejaVuSans-108"/>
      <use x="440.197266" xlink:href="#DejaVuSans-115"/>
      <use x="492.296875" xlink:href="#DejaVuSans-101"/>
     </g>
    </g>
    <g id="patch_40">
     <path d="M 645.84 398.290909 
L 857.52 398.290909 
L 857.52 349.854545 
L 645.84 349.854545 
z
" style="fill:#ffffff;stroke:#ffffff;stroke-linejoin:miter;"/>
    </g>
    <g id="text_39">
     <!-- False/True -->
     <g transform="translate(753.052 378.487727)scale(0.16 -0.16)">
      <use xlink:href="#DejaVuSans-70"/>
      <use x="57.378906" xlink:href="#DejaVuSans-97"/>
      <use x="118.658203" xlink:href="#DejaVuSans-108"/>
      <use x="146.441406" xlink:href="#DejaVuSans-115"/>
      <use x="198.541016" xlink:href="#DejaVuSans-101"/>
      <use x="260.064453" xlink:href="#DejaVuSans-47"/>
      <use x="293.755859" xlink:href="#DejaVuSans-84"/>
      <use x="354.621094" xlink:href="#DejaVuSans-114"/>
      <use x="395.734375" xlink:href="#DejaVuSans-117"/>
      <use x="459.113281" xlink:href="#DejaVuSans-101"/>
     </g>
    </g>
    <g id="patch_41">
     <path d="M 857.52 398.290909 
L 1069.2 398.290909 
L 1069.2 349.854545 
L 857.52 349.854545 
z
" style="fill:#ffffff;stroke:#ffffff;stroke-linejoin:miter;"/>
    </g>
    <g id="text_40">
     <!-- True/True -->
     <g transform="translate(970.042 378.487727)scale(0.16 -0.16)">
      <use xlink:href="#DejaVuSans-84"/>
      <use x="60.865234" xlink:href="#DejaVuSans-114"/>
      <use x="101.978516" xlink:href="#DejaVuSans-117"/>
      <use x="165.357422" xlink:href="#DejaVuSans-101"/>
      <use x="226.880859" xlink:href="#DejaVuSans-47"/>
      <use x="260.572266" xlink:href="#DejaVuSans-84"/>
      <use x="321.4375" xlink:href="#DejaVuSans-114"/>
      <use x="362.550781" xlink:href="#DejaVuSans-117"/>
      <use x="425.929688" xlink:href="#DejaVuSans-101"/>
     </g>
    </g>
    <g id="patch_42">
     <path d="M 10.8 446.727273 
L 222.48 446.727273 
L 222.48 398.290909 
L 10.8 398.290909 
z
" style="fill:#f1f1f2;stroke:#ffffff;stroke-linejoin:miter;"/>
    </g>
    <g id="text_41">
     <!-- 7 -->
     <defs>
      <path d="M 8.203125 72.90625 
L 55.078125 72.90625 
L 55.078125 68.703125 
L 28.609375 0 
L 18.3125 0 
L 43.21875 64.59375 
L 8.203125 64.59375 
z
" id="DejaVuSans-55"/>
     </defs>
     <g transform="translate(191.132 426.924091)scale(0.16 -0.16)">
      <use xlink:href="#DejaVuSans-55"/>
     </g>
    </g>
    <g id="patch_43">
     <path d="M 222.48 446.727273 
L 434.16 446.727273 
L 434.16 398.290909 
L 222.48 398.290909 
z
" style="fill:#f1f1f2;stroke:#ffffff;stroke-linejoin:miter;"/>
    </g>
    <g id="text_42">
     <!-- True/True -->
     <g transform="translate(335.002 426.924091)scale(0.16 -0.16)">
      <use xlink:href="#DejaVuSans-84"/>
      <use x="60.865234" xlink:href="#DejaVuSans-114"/>
      <use x="101.978516" xlink:href="#DejaVuSans-117"/>
      <use x="165.357422" xlink:href="#DejaVuSans-101"/>
      <use x="226.880859" xlink:href="#DejaVuSans-47"/>
      <use x="260.572266" xlink:href="#DejaVuSans-84"/>
      <use x="321.4375" xlink:href="#DejaVuSans-114"/>
      <use x="362.550781" xlink:href="#DejaVuSans-117"/>
      <use x="425.929688" xlink:href="#DejaVuSans-101"/>
     </g>
    </g>
    <g id="patch_44">
     <path d="M 434.16 446.727273 
L 645.84 446.727273 
L 645.84 398.290909 
L 434.16 398.290909 
z
" style="fill:#f1f1f2;stroke:#ffffff;stroke-linejoin:miter;"/>
    </g>
    <g id="text_43">
     <!-- True/False -->
     <g transform="translate(541.372 426.924091)scale(0.16 -0.16)">
      <use xlink:href="#DejaVuSans-84"/>
      <use x="60.865234" xlink:href="#DejaVuSans-114"/>
      <use x="101.978516" xlink:href="#DejaVuSans-117"/>
      <use x="165.357422" xlink:href="#DejaVuSans-101"/>
      <use x="226.880859" xlink:href="#DejaVuSans-47"/>
      <use x="260.572266" xlink:href="#DejaVuSans-70"/>
      <use x="317.951172" xlink:href="#DejaVuSans-97"/>
      <use x="379.230469" xlink:href="#DejaVuSans-108"/>
      <use x="407.013672" xlink:href="#DejaVuSans-115"/>
      <use x="459.113281" xlink:href="#DejaVuSans-101"/>
     </g>
    </g>
    <g id="patch_45">
     <path d="M 645.84 446.727273 
L 857.52 446.727273 
L 857.52 398.290909 
L 645.84 398.290909 
z
" style="fill:#f1f1f2;stroke:#ffffff;stroke-linejoin:miter;"/>
    </g>
    <g id="text_44">
     <!-- True/True -->
     <g transform="translate(758.362 426.924091)scale(0.16 -0.16)">
      <use xlink:href="#DejaVuSans-84"/>
      <use x="60.865234" xlink:href="#DejaVuSans-114"/>
      <use x="101.978516" xlink:href="#DejaVuSans-117"/>
      <use x="165.357422" xlink:href="#DejaVuSans-101"/>
      <use x="226.880859" xlink:href="#DejaVuSans-47"/>
      <use x="260.572266" xlink:href="#DejaVuSans-84"/>
      <use x="321.4375" xlink:href="#DejaVuSans-114"/>
      <use x="362.550781" xlink:href="#DejaVuSans-117"/>
      <use x="425.929688" xlink:href="#DejaVuSans-101"/>
     </g>
    </g>
    <g id="patch_46">
     <path d="M 857.52 446.727273 
L 1069.2 446.727273 
L 1069.2 398.290909 
L 857.52 398.290909 
z
" style="fill:#f1f1f2;stroke:#ffffff;stroke-linejoin:miter;"/>
    </g>
    <g id="text_45">
     <!-- True/True -->
     <g transform="translate(970.042 426.924091)scale(0.16 -0.16)">
      <use xlink:href="#DejaVuSans-84"/>
      <use x="60.865234" xlink:href="#DejaVuSans-114"/>
      <use x="101.978516" xlink:href="#DejaVuSans-117"/>
      <use x="165.357422" xlink:href="#DejaVuSans-101"/>
      <use x="226.880859" xlink:href="#DejaVuSans-47"/>
      <use x="260.572266" xlink:href="#DejaVuSans-84"/>
      <use x="321.4375" xlink:href="#DejaVuSans-114"/>
      <use x="362.550781" xlink:href="#DejaVuSans-117"/>
      <use x="425.929688" xlink:href="#DejaVuSans-101"/>
     </g>
    </g>
    <g id="patch_47">
     <path d="M 10.8 495.163636 
L 222.48 495.163636 
L 222.48 446.727273 
L 10.8 446.727273 
z
" style="fill:#ffffff;stroke:#ffffff;stroke-linejoin:miter;"/>
    </g>
    <g id="text_46">
     <!-- 8 -->
     <defs>
      <path d="M 31.78125 34.625 
Q 24.75 34.625 20.71875 30.859375 
Q 16.703125 27.09375 16.703125 20.515625 
Q 16.703125 13.921875 20.71875 10.15625 
Q 24.75 6.390625 31.78125 6.390625 
Q 38.8125 6.390625 42.859375 10.171875 
Q 46.921875 13.96875 46.921875 20.515625 
Q 46.921875 27.09375 42.890625 30.859375 
Q 38.875 34.625 31.78125 34.625 
z
M 21.921875 38.8125 
Q 15.578125 40.375 12.03125 44.71875 
Q 8.5 49.078125 8.5 55.328125 
Q 8.5 64.0625 14.71875 69.140625 
Q 20.953125 74.21875 31.78125 74.21875 
Q 42.671875 74.21875 48.875 69.140625 
Q 55.078125 64.0625 55.078125 55.328125 
Q 55.078125 49.078125 51.53125 44.71875 
Q 48 40.375 41.703125 38.8125 
Q 48.828125 37.15625 52.796875 32.3125 
Q 56.78125 27.484375 56.78125 20.515625 
Q 56.78125 9.90625 50.3125 4.234375 
Q 43.84375 -1.421875 31.78125 -1.421875 
Q 19.734375 -1.421875 13.25 4.234375 
Q 6.78125 9.90625 6.78125 20.515625 
Q 6.78125 27.484375 10.78125 32.3125 
Q 14.796875 37.15625 21.921875 38.8125 
z
M 18.3125 54.390625 
Q 18.3125 48.734375 21.84375 45.5625 
Q 25.390625 42.390625 31.78125 42.390625 
Q 38.140625 42.390625 41.71875 45.5625 
Q 45.3125 48.734375 45.3125 54.390625 
Q 45.3125 60.0625 41.71875 63.234375 
Q 38.140625 66.40625 31.78125 66.40625 
Q 25.390625 66.40625 21.84375 63.234375 
Q 18.3125 60.0625 18.3125 54.390625 
z
" id="DejaVuSans-56"/>
     </defs>
     <g transform="translate(191.132 475.360455)scale(0.16 -0.16)">
      <use xlink:href="#DejaVuSans-56"/>
     </g>
    </g>
    <g id="patch_48">
     <path d="M 222.48 495.163636 
L 434.16 495.163636 
L 434.16 446.727273 
L 222.48 446.727273 
z
" style="fill:#ffffff;stroke:#ffffff;stroke-linejoin:miter;"/>
    </g>
    <g id="text_47">
     <!-- True/True -->
     <g transform="translate(335.002 475.360455)scale(0.16 -0.16)">
      <use xlink:href="#DejaVuSans-84"/>
      <use x="60.865234" xlink:href="#DejaVuSans-114"/>
      <use x="101.978516" xlink:href="#DejaVuSans-117"/>
      <use x="165.357422" xlink:href="#DejaVuSans-101"/>
      <use x="226.880859" xlink:href="#DejaVuSans-47"/>
      <use x="260.572266" xlink:href="#DejaVuSans-84"/>
      <use x="321.4375" xlink:href="#DejaVuSans-114"/>
      <use x="362.550781" xlink:href="#DejaVuSans-117"/>
      <use x="425.929688" xlink:href="#DejaVuSans-101"/>
     </g>
    </g>
    <g id="patch_49">
     <path d="M 434.16 495.163636 
L 645.84 495.163636 
L 645.84 446.727273 
L 434.16 446.727273 
z
" style="fill:#ffffff;stroke:#ffffff;stroke-linejoin:miter;"/>
    </g>
    <g id="text_48">
     <!-- True/True -->
     <g transform="translate(546.682 475.360455)scale(0.16 -0.16)">
      <use xlink:href="#DejaVuSans-84"/>
      <use x="60.865234" xlink:href="#DejaVuSans-114"/>
      <use x="101.978516" xlink:href="#DejaVuSans-117"/>
      <use x="165.357422" xlink:href="#DejaVuSans-101"/>
      <use x="226.880859" xlink:href="#DejaVuSans-47"/>
      <use x="260.572266" xlink:href="#DejaVuSans-84"/>
      <use x="321.4375" xlink:href="#DejaVuSans-114"/>
      <use x="362.550781" xlink:href="#DejaVuSans-117"/>
      <use x="425.929688" xlink:href="#DejaVuSans-101"/>
     </g>
    </g>
    <g id="patch_50">
     <path d="M 645.84 495.163636 
L 857.52 495.163636 
L 857.52 446.727273 
L 645.84 446.727273 
z
" style="fill:#ffffff;stroke:#ffffff;stroke-linejoin:miter;"/>
    </g>
    <g id="text_49">
     <!-- True/True -->
     <g transform="translate(758.362 475.360455)scale(0.16 -0.16)">
      <use xlink:href="#DejaVuSans-84"/>
      <use x="60.865234" xlink:href="#DejaVuSans-114"/>
      <use x="101.978516" xlink:href="#DejaVuSans-117"/>
      <use x="165.357422" xlink:href="#DejaVuSans-101"/>
      <use x="226.880859" xlink:href="#DejaVuSans-47"/>
      <use x="260.572266" xlink:href="#DejaVuSans-84"/>
      <use x="321.4375" xlink:href="#DejaVuSans-114"/>
      <use x="362.550781" xlink:href="#DejaVuSans-117"/>
      <use x="425.929688" xlink:href="#DejaVuSans-101"/>
     </g>
    </g>
    <g id="patch_51">
     <path d="M 857.52 495.163636 
L 1069.2 495.163636 
L 1069.2 446.727273 
L 857.52 446.727273 
z
" style="fill:#ffffff;stroke:#ffffff;stroke-linejoin:miter;"/>
    </g>
    <g id="text_50">
     <!-- True/True -->
     <g transform="translate(970.042 475.360455)scale(0.16 -0.16)">
      <use xlink:href="#DejaVuSans-84"/>
      <use x="60.865234" xlink:href="#DejaVuSans-114"/>
      <use x="101.978516" xlink:href="#DejaVuSans-117"/>
      <use x="165.357422" xlink:href="#DejaVuSans-101"/>
      <use x="226.880859" xlink:href="#DejaVuSans-47"/>
      <use x="260.572266" xlink:href="#DejaVuSans-84"/>
      <use x="321.4375" xlink:href="#DejaVuSans-114"/>
      <use x="362.550781" xlink:href="#DejaVuSans-117"/>
      <use x="425.929688" xlink:href="#DejaVuSans-101"/>
     </g>
    </g>
    <g id="patch_52">
     <path d="M 10.8 543.6 
L 222.48 543.6 
L 222.48 495.163636 
L 10.8 495.163636 
z
" style="fill:#f1f1f2;stroke:#ffffff;stroke-linejoin:miter;"/>
    </g>
    <g id="text_51">
     <!-- 9 -->
     <defs>
      <path d="M 10.984375 1.515625 
L 10.984375 10.5 
Q 14.703125 8.734375 18.5 7.8125 
Q 22.3125 6.890625 25.984375 6.890625 
Q 35.75 6.890625 40.890625 13.453125 
Q 46.046875 20.015625 46.78125 33.40625 
Q 43.953125 29.203125 39.59375 26.953125 
Q 35.25 24.703125 29.984375 24.703125 
Q 19.046875 24.703125 12.671875 31.3125 
Q 6.296875 37.9375 6.296875 49.421875 
Q 6.296875 60.640625 12.9375 67.421875 
Q 19.578125 74.21875 30.609375 74.21875 
Q 43.265625 74.21875 49.921875 64.515625 
Q 56.59375 54.828125 56.59375 36.375 
Q 56.59375 19.140625 48.40625 8.859375 
Q 40.234375 -1.421875 26.421875 -1.421875 
Q 22.703125 -1.421875 18.890625 -0.6875 
Q 15.09375 0.046875 10.984375 1.515625 
z
M 30.609375 32.421875 
Q 37.25 32.421875 41.125 36.953125 
Q 45.015625 41.5 45.015625 49.421875 
Q 45.015625 57.28125 41.125 61.84375 
Q 37.25 66.40625 30.609375 66.40625 
Q 23.96875 66.40625 20.09375 61.84375 
Q 16.21875 57.28125 16.21875 49.421875 
Q 16.21875 41.5 20.09375 36.953125 
Q 23.96875 32.421875 30.609375 32.421875 
z
" id="DejaVuSans-57"/>
     </defs>
     <g transform="translate(191.132 523.796818)scale(0.16 -0.16)">
      <use xlink:href="#DejaVuSans-57"/>
     </g>
    </g>
    <g id="patch_53">
     <path d="M 222.48 543.6 
L 434.16 543.6 
L 434.16 495.163636 
L 222.48 495.163636 
z
" style="fill:#f1f1f2;stroke:#ffffff;stroke-linejoin:miter;"/>
    </g>
    <g id="text_52">
     <!-- True/True -->
     <g transform="translate(335.002 523.796818)scale(0.16 -0.16)">
      <use xlink:href="#DejaVuSans-84"/>
      <use x="60.865234" xlink:href="#DejaVuSans-114"/>
      <use x="101.978516" xlink:href="#DejaVuSans-117"/>
      <use x="165.357422" xlink:href="#DejaVuSans-101"/>
      <use x="226.880859" xlink:href="#DejaVuSans-47"/>
      <use x="260.572266" xlink:href="#DejaVuSans-84"/>
      <use x="321.4375" xlink:href="#DejaVuSans-114"/>
      <use x="362.550781" xlink:href="#DejaVuSans-117"/>
      <use x="425.929688" xlink:href="#DejaVuSans-101"/>
     </g>
    </g>
    <g id="patch_54">
     <path d="M 434.16 543.6 
L 645.84 543.6 
L 645.84 495.163636 
L 434.16 495.163636 
z
" style="fill:#f1f1f2;stroke:#ffffff;stroke-linejoin:miter;"/>
    </g>
    <g id="text_53">
     <!-- True/True -->
     <g transform="translate(546.682 523.796818)scale(0.16 -0.16)">
      <use xlink:href="#DejaVuSans-84"/>
      <use x="60.865234" xlink:href="#DejaVuSans-114"/>
      <use x="101.978516" xlink:href="#DejaVuSans-117"/>
      <use x="165.357422" xlink:href="#DejaVuSans-101"/>
      <use x="226.880859" xlink:href="#DejaVuSans-47"/>
      <use x="260.572266" xlink:href="#DejaVuSans-84"/>
      <use x="321.4375" xlink:href="#DejaVuSans-114"/>
      <use x="362.550781" xlink:href="#DejaVuSans-117"/>
      <use x="425.929688" xlink:href="#DejaVuSans-101"/>
     </g>
    </g>
    <g id="patch_55">
     <path d="M 645.84 543.6 
L 857.52 543.6 
L 857.52 495.163636 
L 645.84 495.163636 
z
" style="fill:#f1f1f2;stroke:#ffffff;stroke-linejoin:miter;"/>
    </g>
    <g id="text_54">
     <!-- True/True -->
     <g transform="translate(758.362 523.796818)scale(0.16 -0.16)">
      <use xlink:href="#DejaVuSans-84"/>
      <use x="60.865234" xlink:href="#DejaVuSans-114"/>
      <use x="101.978516" xlink:href="#DejaVuSans-117"/>
      <use x="165.357422" xlink:href="#DejaVuSans-101"/>
      <use x="226.880859" xlink:href="#DejaVuSans-47"/>
      <use x="260.572266" xlink:href="#DejaVuSans-84"/>
      <use x="321.4375" xlink:href="#DejaVuSans-114"/>
      <use x="362.550781" xlink:href="#DejaVuSans-117"/>
      <use x="425.929688" xlink:href="#DejaVuSans-101"/>
     </g>
    </g>
    <g id="patch_56">
     <path d="M 857.52 543.6 
L 1069.2 543.6 
L 1069.2 495.163636 
L 857.52 495.163636 
z
" style="fill:#f1f1f2;stroke:#ffffff;stroke-linejoin:miter;"/>
    </g>
    <g id="text_55">
     <!-- True/True -->
     <g transform="translate(970.042 523.796818)scale(0.16 -0.16)">
      <use xlink:href="#DejaVuSans-84"/>
      <use x="60.865234" xlink:href="#DejaVuSans-114"/>
      <use x="101.978516" xlink:href="#DejaVuSans-117"/>
      <use x="165.357422" xlink:href="#DejaVuSans-101"/>
      <use x="226.880859" xlink:href="#DejaVuSans-47"/>
      <use x="260.572266" xlink:href="#DejaVuSans-84"/>
      <use x="321.4375" xlink:href="#DejaVuSans-114"/>
      <use x="362.550781" xlink:href="#DejaVuSans-117"/>
      <use x="425.929688" xlink:href="#DejaVuSans-101"/>
     </g>
    </g>
   </g>
  </g>
 </g>
</svg>
